<?xml version="1.0" encoding="utf-8"?>
<!-- Generator: Adobe Illustrator 17.1.0, SVG Export Plug-In . SVG Version: 6.00 Build 0)  -->
<!DOCTYPE svg PUBLIC "-//W3C//DTD SVG 1.1//EN" "http://www.w3.org/Graphics/SVG/1.1/DTD/svg11.dtd">
<svg version="1.1" id="Layer_1" xmlns="http://www.w3.org/2000/svg" xmlns:xlink="http://www.w3.org/1999/xlink" x="0px" y="0px"
	 viewBox="0 0 243.2 129.9" enable-background="new 0 0 243.2 129.9" xml:space="preserve">
<g>
	<path fill="#231F20" d="M13.1,49.1c0.1-0.1,0.1-0.2,0.1-0.4c0-0.1,0-0.2,0.1-0.4l0.6-3.8c0.1-0.7,0.2-1.5,0.3-2.2
		c0.1-0.7,0.2-1.5,0.3-2.2c0.1-0.5,0.1-0.9,0.1-1.4c0-0.5,0.1-0.9,0.1-1.4c0.1-0.6,0.2-1.3,0.3-1.9c0.1-0.6,0.2-1.3,0.3-1.9
		c0-0.1,0-0.2,0-0.3c0-0.1,0-0.2,0-0.3c0.1-0.2,0.1-0.3,0.1-0.5c0-0.2,0.1-0.3,0.2-0.4l0.4-0.8c0-0.2,0-0.4,0-0.5c0-0.2,0-0.3,0-0.5
		c0.1-0.5,0.2-0.9,0.2-1.4c0-0.5,0.1-1,0.2-1.5c0.1-0.3,0.1-0.6,0.1-1c0-0.3,0-0.7,0.1-1c0.1-0.7,0.1-1.5,0.2-2.5
		c0.1-1,0.2-1.9,0.4-2.8c0.1-0.9,0.3-1.7,0.5-2.5c0.2-0.7,0.4-1.2,0.7-1.5V16c0.1-0.4,0-0.7-0.1-0.8c-0.1-0.1-0.1-0.4,0-0.9
		c0.1-0.1,0.3-0.3,0.5-0.5c0.3-0.2,0.4-0.4,0.4-0.5V13l-0.6-0.2c-0.1-0.1-0.1-0.2-0.1-0.3c0.3-1.4,0.5-2.8,0.6-4.2
		c0.2-1.4,0.4-2.8,0.6-4.1l0.2-1.6c0.1-0.8,0.3-1.3,0.9-1.4c0.4,0,0.9,0,1.3,0c0.5,0,1,0,1.5,0c0.4,0,0.7,0,1.1-0.1
		c0.4-0.1,0.8-0.1,1.2-0.1h0.9c0.4,0,0.8,0,1.2-0.1c0.4-0.1,0.7-0.1,1.1-0.1c0.3,0.1,0.4,0.2,0.4,0.4c0,0.2,0,0.5,0,0.9
		c-0.1,0.3-0.1,0.6-0.1,0.9c0,0.3-0.1,0.6-0.1,0.9c-0.1,0.3-0.1,0.6-0.1,0.9c0,0.3,0,0.6-0.1,0.9c-0.1,0.7-0.2,1.5-0.4,2.2
		c-0.2,0.8-0.3,1.5-0.4,2.2c0,0.2,0,0.3,0,0.5c0,0.2,0,0.3,0,0.5c0,0.1,0,0.1-0.1,0.1c-0.1,0-0.1,0.1-0.1,0.1
		c-0.1,0.3-0.1,0.5,0,0.9c0,0.3,0,0.6,0,0.9c-0.1,0.6-0.2,1.2-0.3,1.8c-0.1,0.6-0.2,1.2-0.3,1.8L27.3,17c0,0.3,0,0.6-0.1,0.8
		c-0.1,0.6-0.2,1.2-0.3,1.8c-0.1,0.6-0.1,1.2-0.2,1.8c-0.1,0.1-0.1,0.2-0.1,0.4c0,0.1,0,0.2-0.1,0.4c0,0.2,0,0.3,0,0.4
		c0,0.1-0.1,0.3-0.1,0.4c-0.1,0.3-0.1,0.5-0.1,0.8c0,0.3,0,0.6,0,0.8c-0.2,0.4-0.2,0.8-0.2,1.2c-0.1,0.5-0.1,0.9-0.1,1.4
		c0.1,0.5,0,1-0.1,1.5c-0.2,1.4-0.4,2.8-0.9,4.1c-0.4,1.4-0.7,2.7-0.9,4.1c-0.1,0.6-0.1,1.2-0.1,1.8c0.1,0.6,0,1.2-0.1,1.8
		c-0.1,0.3-0.1,0.5-0.2,0.8c-0.1,0.3-0.2,0.6-0.2,0.9c-0.1,0.4-0.1,0.7,0,1.1c0,0.4,0,0.8,0,1.2c-0.1,0.7-0.2,1.5-0.4,2.3
		c-0.2,0.8-0.3,1.6-0.4,2.3c-0.1,0.1-0.1,0.2,0,0.4c0,0.2,0,0.3,0,0.5c-0.1,0.3-0.1,0.6-0.2,0.9c-0.1,0.3-0.2,0.7-0.3,1
		c0,0.3,0,0.5,0.1,0.7c0.1,0.2,0.1,0.4,0,0.7c-0.1,0.8-0.3,1.7-0.5,2.5c-0.3,0.8-0.4,1.7-0.5,2.5c0.1,0.3,0.1,0.5,0,0.7
		c0,0.2,0,0.4,0,0.6c-0.2,0.7-0.6,1-1.2,1c-0.7,0-1.4,0-2.1-0.1s-1.4-0.1-2.1-0.1h-1.7c-0.7,0-1.4-0.1-2-0.2
		c-0.6-0.1-1.2-0.2-1.8-0.2c-0.1,0-0.1,0-0.2,0.1c-2-0.3-3.8-1-5.3-2.3c-1.6-1.2-3.1-2.9-4.4-4.9C0,52.6,0,52.5,0,52.5
		c0-0.1,0-0.1,0-0.2c0-0.3,0.1-0.5,0.2-0.6c1-1.2,2-2.4,3-3.5c1-1.2,2-2.4,3-3.6c0-0.1,0.1-0.2,0.2-0.4c0.1-0.2,0.3-0.2,0.4-0.2
		c0.1,0,0.2,0.1,0.3,0.4c0.2,0.2,0.4,0.5,0.6,0.8c0.2,0.3,0.5,0.7,0.7,1.1c0.3,0.4,0.5,0.7,0.7,1.1c0.3,0.4,0.9,0.8,1.6,1.2
		c0.8,0.4,1.4,0.7,2,0.9h0.1L13.1,49.1z"/>
	<path fill="#231F20" d="M75.8,32.4c-0.3-0.2-0.4-0.5-0.4-0.7c0-0.3-0.1-0.5-0.3-0.7c-0.2,0-0.3,0.1-0.3,0.2c-0.1,0.6,0,1.2,0.2,1.8
		c0.3,0.6,0.4,1.1,0.3,1.6c-0.3,1.7-0.8,3.3-1.5,5c-0.7,1.7-1.4,3.2-2.1,4.6l-1.6,3c-0.2,0.5-0.6,1-1.1,1.7
		c-0.5,0.7-0.9,1.2-1.2,1.7h-0.4c-0.3,0-0.4,0.1-0.4,0.2c0,0.1,0,0.1,0.1,0.2c0.1,0.1,0.1,0.2,0.2,0.4c-0.9,0.9-1.9,1.8-2.8,2.9
		c-0.9,1-1.9,2-3.1,2.9c-1.1,0.9-2.5,1.6-4.1,2.3c-1.6,0.6-3.6,0.9-5.9,0.9c-0.4,0-0.6-0.2-0.7-0.5c-0.3,0.3-0.5,0.4-0.8,0.4
		c-0.3,0-0.6,0-1,0h-0.6h-1.4c-1.7,0-3.4-0.4-5.2-1.2c-1.7-0.8-3.3-1.9-4.8-3.4c-1.5-1.5-2.7-3.2-3.8-5.3c-1.1-2.1-1.8-4.4-2.2-7.1
		c-0.5-1.9-0.8-3.7-0.9-5.6c-0.1-1.9-0.2-3.9-0.2-6.2v-0.5c0.1-0.2,0.1-0.4,0.2-0.5c0.1-0.2,0.2-0.3,0.4-0.5
		c-0.2-0.2-0.3-0.5-0.3-0.7c0-0.3,0-0.6,0.1-0.9c0.4-3.2,1.1-6.2,2.3-9.1c1.2-2.9,2.6-5.5,4.3-7.8c1.6-2.3,3.4-4.3,5.3-5.9
		c1.9-1.6,3.8-2.8,5.8-3.6C49,1.5,50.3,1.2,51.7,1c1.4-0.2,2.8-0.3,4.2-0.3c0.6,0,1.1,0,1.7,0c0.6,0,1.1,0.1,1.7,0.1
		c0.2-0.1,0.4-0.1,0.8-0.1c2,0,3.7,0.4,5.3,1.1c1.5,0.8,2.9,1.7,4.1,2.9s2.2,2.5,3,4c0.8,1.5,1.5,3,2.1,4.5c0.6,1.5,1,3,1.4,4.3
		c0.3,1.4,0.6,2.5,0.7,3.5l-0.1,0.2c0.1,1.5,0,3,0,4.5c-0.1,1.5-0.1,3-0.2,4.5c-0.1,0.4-0.1,0.7-0.2,1C76,31.7,75.9,32.1,75.8,32.4z
		 M51.7,11.8c-0.9,0.4-1.7,0.7-2.3,1c-0.7,0.3-1.3,0.7-1.9,1.1c-0.6,0.4-1.1,0.8-1.6,1.4c-0.5,0.5-1,1.1-1.6,1.9
		c-1.3,1.8-2.4,3.7-3.3,5.7c-0.9,2-1.5,4.1-1.7,6.2c-0.4,3.7-0.1,7.2,0.9,10.3c1,3.1,2.4,5.9,4.2,8.3c0.2,0.3,0.4,0.6,0.7,0.9
		c0.2,0.3,0.6,0.5,1,0.5h0.2c0.3,0,0.5,0.1,0.7,0.4s0.6,0.4,1,0.4c0.1,0,0.2,0,0.3,0c0.1,0,0.1,0,0.2,0c0.2,0,0.4,0,0.5,0.1
		c0.2,0.1,0.4,0.1,0.6,0.1c0.1,0,0.2,0,0.2,0c0.1,0,0.1,0,0.2,0c0.1,0,0.2,0.1,0.2,0.2c1.2,0,2.4-0.3,3.7-0.9
		c1.2-0.6,2.4-1.3,3.5-2.2c1.1-0.9,2.1-1.8,2.9-2.7c0.8-0.9,1.5-1.7,1.9-2.3c0.6-0.9,1.1-2,1.7-3.1c0.6-1.1,1.1-2.2,1.5-3.4
		c0.4-1.1,0.8-2.3,1.1-3.4c0.3-1.1,0.5-2.1,0.6-2.9c0.2-1.4,0.2-2.9,0-4.6c-0.2-1.7-0.5-3.4-1.1-5.1c-0.5-1.7-1.3-3.1-2.3-4.4
		c-1-1.3-2.2-2.2-3.7-2.7c-0.3-0.1-0.4-0.2-0.5-0.3c-0.1-0.1-0.2-0.3-0.4-0.7c-0.2,0.4-0.5,0.5-0.9,0.5c-0.5,0-1.1,0-1.6-0.1
		c-0.5-0.1-1-0.1-1.4-0.1c-0.2,0-0.3,0-0.5,0c-0.2,0-0.3,0-0.5,0c-0.4,0-0.7,0-0.9-0.1c-0.4,0.2-0.7,0.3-0.9,0.3
		C52.2,11.9,51.9,11.9,51.7,11.8z"/>
	<path fill="#231F20" d="M78.6,54.4l0.4-3.2c0.2-1.4,0.4-2.7,0.6-4.1c0.2-1.4,0.4-2.7,0.5-4.1l0.1-0.2c0.2-0.6,0.3-1.1,0.4-1.6
		c0.1-0.5,0.2-1.1,0.3-1.6l0.4-3.2c0.1-0.4,0-0.7-0.1-0.9C81,35.4,81,35.2,81,34.9c0-0.1,0-0.2,0-0.3c0-0.1,0-0.2,0-0.3l0.9-7.1
		c0-0.1,0-0.1,0-0.2c0-0.1,0-0.1,0-0.2c0.1-0.3,0.2-0.5,0.3-0.9c0.2-0.3,0.3-0.6,0.3-0.9L84,14.3c0.1-0.5,0.1-0.9,0.2-1.4
		c0.1-0.5,0.2-1,0.3-1.4c0.1-0.1,0.1-0.2,0-0.3c0-0.1,0-0.2,0-0.3l0.3-2.3c0-0.2,0-0.3,0.1-0.5c0.1-0.2,0.1-0.4,0.2-0.6
		c-0.1-0.2-0.1-0.3,0-0.5c0-0.2,0-0.4,0-0.5C85,6,85.1,5.6,85.1,5.2c0.1-0.4,0.1-0.7,0.2-1.1c0-0.1,0-0.2,0-0.4c0-0.2,0-0.3,0-0.5
		c0.1-0.3,0.1-0.6,0.2-0.9c0.1-0.3,0.2-0.5,0.5-0.5h0.2c1.2-0.1,2.5-0.1,3.7-0.1c1.2,0,2.5,0,3.7,0h0.5c0.4,0.1,0.5,0.3,0.5,0.6
		L94.5,5c-0.3,1.8-0.6,3.7-0.8,5.5c-0.2,1.8-0.5,3.7-0.7,5.5l-3,24.9c-0.1,0.4-0.2,0.7-0.3,1.1c-0.2,0.4-0.3,0.7-0.3,1v0.4
		c-0.2,1.6-0.4,3.1-0.6,4.8c-0.2,1.6-0.4,3.2-0.7,4.7l-0.8,6.1C87,59.6,86.6,60,85.8,60c-0.9-0.2-1.9-0.2-2.9-0.2c-1,0-2,0-2.9,0
		h-1.4c-0.5-0.1-0.7-0.3-0.7-0.9L78.6,54.4z"/>
	<path fill="#231F20" d="M115.9,59.7c-0.1-0.6-0.1-1.2,0-1.9c0.1-0.5,0.2-1,0.3-1.5c0.1-0.5,0.2-1,0.3-1.6v-0.9
		c0.1-0.5,0.2-1,0.3-1.6c0.1-0.5,0.1-1.1,0.2-1.6c0.1-0.6,0.1-1.1,0-1.6c-0.1-0.4-0.2-0.9-0.4-1.5L113,40c-0.6-1.2-1.2-2.5-1.9-3.8
		c-0.6-1.3-1.2-2.6-1.8-3.9c-0.1,0.2-0.1,0.3-0.2,0.4c-0.1,0.1-0.1,0.1-0.1,0.2c0,0.2,0,0.3,0,0.4c0,0.1,0,0.2,0,0.4
		c0,0.2,0,0.3-0.1,0.5c-0.1,0.2-0.1,0.4-0.2,0.6c0,0.1,0,0.2,0,0.3c0,0.1,0,0.2,0,0.3c-0.3,2.5-0.7,5-1,7.4c-0.4,2.5-0.7,5-1,7.7
		l-1.1,8.5c-0.1,0.7-0.5,1-1.1,1c-0.4,0-0.8,0-1.2,0c-0.4,0-0.8,0-1.2,0c-0.2,0-0.4,0-0.5,0.1c-0.2,0.1-0.3,0.1-0.5,0.1
		c-0.6,0-1-0.2-1.3-0.7C99.4,59.7,99.2,60,99,60c-0.2,0-0.4,0-0.6-0.1c-0.2-0.1-0.4-0.1-0.5-0.1c-0.1,0-0.2,0-0.4,0
		c-0.1,0-0.2,0-0.4,0c-0.5,0-0.8-0.1-1-0.3c-0.1-0.2-0.2-0.4-0.2-0.7l0.3-2.1c0.3-2.2,0.6-4.4,0.9-6.6c0.3-2.2,0.6-4.4,0.9-6.6
		c0.1-0.6,0.2-1.2,0.2-1.8c0.1-0.6,0.1-1.2,0.2-1.9c0.2-1.5,0.5-3.1,0.7-4.9c0.3-1.7,0.5-3.5,0.7-5.3l0.5-4.4
		c0.2-1.6,0.4-3.2,0.7-4.8c0.2-1.6,0.5-3.2,0.7-4.8c0.1-0.3,0.1-0.5,0.1-0.7c0-0.2,0-0.4,0-0.7c0.3-1.7,0.5-3.4,0.7-5.2
		c0.2-1.7,0.5-3.5,0.8-5.2l0.1-0.6V3.2c0.1-0.2,0.1-0.3,0-0.5c0-0.2,0-0.4,0-0.6c0-0.3,0-0.5,0.1-0.6c0.1-0.3,0.1-0.6,0-0.7
		c0-0.2,0-0.3,0-0.4c0-0.2,0.1-0.3,0.4-0.3c0.1,0,0.3,0.2,0.6,0.5c0.3,0.3,0.6,0.7,0.9,1.2c0.3,0.4,0.6,0.8,0.9,1.2
		c0.3,0.4,0.4,0.6,0.5,0.6c0.1,0.3,0.2,0.6,0.4,1.1c0.2,0.4,0.4,0.9,0.6,1.3c0.2,0.4,0.4,0.9,0.5,1.3c0.1,0.4,0.2,0.7,0.1,0.9
		c0,0.1,0,0.2,0,0.2c0,0,0,0.1,0,0.2v0.2h0.3l5.2,10.9c0.9,1.8,1.8,3.6,2.6,5.5c0.9,1.8,1.7,3.7,2.6,5.5c0.1-0.1,0.2-0.2,0.2-0.2
		c0.1-0.1,0.1-0.1,0.2-0.2c-0.1-0.3-0.1-0.5,0-0.7c0-0.2,0.1-0.4,0.1-0.7c0.1-0.5,0.1-1,0.2-1.5c0.1-0.5,0.2-1,0.3-1.5
		c0-0.4,0-0.6,0.1-0.8c0.4-3,0.7-5.9,1.1-8.7c0.4-2.9,0.8-6,1.2-9.4c0.2-0.4,0.3-0.7,0.4-0.9c0-0.3,0-0.5,0-0.6c0-0.2,0-0.4,0-0.6
		c0.1-0.3,0.1-0.5,0.2-0.7c0.1-0.2,0.1-0.4,0.2-0.6V2.2c0-0.2,0.1-0.3,0.2-0.5c0.1-0.2,0.3-0.3,0.5-0.3h0.2c1.2,0,2.4,0,3.5,0
		c1.2,0,2.4,0,3.5,0c0.2,0,0.5,0.1,0.9,0.2c0.4,0.1,0.5,0.5,0.4,1.1c-0.1,0.7-0.2,1.4-0.4,2.1c-0.2,0.7-0.3,1.4-0.4,2.1
		c0,0.2,0,0.4,0,0.6c0,0.2-0.1,0.5-0.1,0.7c-0.1,1-0.2,1.9-0.3,2.7c-0.1,0.7-0.2,1.4-0.3,2s-0.2,1.2-0.3,1.9s-0.2,1.3-0.3,2
		l-2.2,14.6c-0.3,2.4-0.7,4.8-1,7.1c-0.4,2.3-0.7,4.6-1,7l-0.8,5.5c-0.1,0.6-0.2,1.2-0.2,1.8c0,0.6-0.1,1.2-0.2,1.8
		c-0.1,0.5-0.2,1-0.2,1.6s-0.1,1.2-0.2,1.8c-0.1,0.6-0.3,1.1-0.5,1.5c-0.2,0.4-0.5,0.6-1,0.6c-1.2,0-2.6,0-4,0
		C118.1,60.1,116.9,60,115.9,59.7z"/>
	<path fill="#231F20" d="M177.7,8.9c0.3,0.3,0.4,0.6,0.5,1.1c0.1,0.4,0.1,0.8,0,1.1c-0.1,0.5-0.4,0.7-0.8,0.7c-0.5,0-0.9,0-1.4-0.1
		c-0.4-0.1-0.9-0.1-1.3-0.1h-0.6c-0.1,0-0.2,0-0.4,0c-0.2,0-0.3,0-0.4,0c-0.5,0-0.9,0-1.4,0c-0.5,0-1,0-1.4,0
		c-0.4,0-0.6,0.2-0.6,0.6c-0.1,0.4-0.1,0.7-0.2,1.1c-0.1,0.4-0.1,0.7-0.1,1.1c-0.1,0.4-0.2,0.8-0.2,1.1c-0.1,0.3-0.1,0.5-0.1,0.8
		c0,0.3-0.1,0.5-0.1,0.8c-0.2,1.5-0.3,2.9-0.5,4.4c-0.2,1.5-0.4,3-0.6,4.4l0.1,0.9v0.5c-0.2,0.4-0.3,0.9-0.3,1.5
		c-0.1,0.4-0.1,0.7-0.1,1.1c0,0.3-0.1,0.7-0.2,1.1v0.5c0,0.4,0,0.6-0.1,0.8c-0.1,0.4-0.1,0.7-0.3,1.1c-0.1,0.3-0.2,0.7-0.3,1
		c-0.1,0.6-0.1,1.2-0.1,1.8c0,0.6,0,1.1,0,1.5c-0.1,0.7-0.2,1.4-0.3,2.1c-0.1,0.8-0.2,1.5-0.3,2.2c-0.1,0.4-0.1,0.8-0.2,1.3
		c-0.1,0.4-0.1,0.9-0.1,1.3c-0.1,0.5-0.2,0.9-0.3,1.4c-0.1,0.5-0.2,1-0.3,1.5c-0.1,0.4-0.1,0.7-0.1,1s0,0.6-0.1,0.9
		c-0.1,0.4-0.1,0.8-0.1,1.1c0,0.3-0.1,0.7-0.1,1.1c-0.1,0.8-0.2,1.5-0.2,2.3c-0.1,0.7-0.1,1.5-0.2,2.4c-0.1,0.3-0.2,0.5-0.2,0.6
		c-0.1,0.3-0.1,0.5-0.1,0.8c0,0.3,0,0.5,0,0.8c-0.1,0.3-0.2,0.5-0.3,0.7c-0.1,0.1-0.3,0.2-0.6,0.3h-0.6c-0.6,0-1.2,0-1.8,0
		c-0.6,0-1.2,0-1.8,0c-0.3,0-0.6,0-0.9,0c-0.3,0-0.6,0-0.9,0c-0.3,0-0.5,0-0.8,0c-0.3,0-0.5,0-0.7,0c-0.2,0-0.4-0.1-0.5-0.2
		c-0.1-0.1-0.2-0.2-0.1-0.4v-0.2c0-0.3,0-0.5,0-0.7c0-0.2,0-0.5,0-0.7l0.5-4.1v-0.9c0.1-0.4,0.1-0.7,0.2-1.1
		c0.1-0.3,0.1-0.7,0.2-1.1c0.1-0.5,0.2-1,0.2-1.6c0-0.5,0.1-1,0.1-1.6c0.1-0.3,0.1-0.5,0.2-0.8c0.1-0.3,0.1-0.5,0.2-0.8l0.2-1.9
		l0.7-6.6c0.2-1.6,0.4-3.2,0.6-4.8c0.2-1.6,0.4-3.2,0.6-4.8c0.1-1,0.2-2.1,0.4-3c0.1-1,0.2-2,0.4-3l0.5-3.8c0.1-0.5,0.1-1,0.2-1.5
		c0.1-0.5,0.1-1,0.2-1.6c0-0.2,0-0.4,0.1-0.7c0.1-0.3,0.1-0.5,0.1-0.8c0-0.3-0.1-0.5-0.2-0.7c-0.1-0.2-0.3-0.3-0.5-0.3h-5
		c-0.2,0-0.4,0-0.5,0.1h-0.4h-0.8c-0.5-0.1-0.8-0.4-0.7-1c0.1-0.2,0.1-0.4,0.2-0.6c0.1-0.2,0.1-0.4,0.2-0.6l1.6-7.1l0.4-1.2
		c0-0.3,0.2-0.4,0.5-0.4h7.5h4.6h2.3h1.1c0.3,0,0.5,0,0.8,0.1c0.3,0.1,0.6,0.1,0.8,0.1c0.1,0,0.2,0,0.2,0c0,0,0.1,0,0.2,0h0.2h0.6
		c0.6-0.1,1.1-0.1,1.6-0.1c0.5,0,1,0,1.6,0c0.6,0.1,0.9,0.4,0.9,0.9l0.1,4.9v1C177.9,8.4,177.8,8.7,177.7,8.9z"/>
	<path fill="#231F20" d="M189.6,25.7c0.1,0.1,0.3,0.2,0.6,0.2h0.5c1.5,0.1,3,0.2,4.6,0.2c1.6,0,3.1,0,4.6,0h1.4
		c0.2-0.2,0.3-0.4,0.3-0.6c0-0.2,0-0.4,0.1-0.5l0.9-7.1c0.1-1,0.2-2.1,0.4-3.2c0.2-1.1,0.4-2.2,0.5-3.3l1.1-8.7V2.3
		c0-0.3,0.1-0.4,0.4-0.5c0.2-0.1,0.3-0.1,0.2-0.1h0.2c0.7-0.1,1.4-0.1,2.1-0.1s1.4,0,2.1,0h0.4c0.5,0,0.8,0.1,0.9,0.2
		c0.2-0.2,0.3-0.2,0.5-0.2c0.2,0,0.3,0,0.5,0h1.6c0.3,0.1,0.5,0.3,0.5,0.6c-0.4,2.9-0.8,5.8-1.3,8.7c-0.4,2.9-0.8,5.8-1.2,8.7
		L208.8,41c-0.4,2.9-0.8,5.8-1.3,8.7c-0.5,2.9-0.9,5.8-1.3,8.7c-0.1,0.9-0.5,1.3-1.5,1.3c-0.6-0.1-1.2-0.2-1.9-0.2
		c-0.6,0-1.2,0-1.9,0h-3.3c-0.4-0.1-0.6-0.4-0.5-0.8l0.1-0.9c0.3-2,0.5-4,0.8-6c0.3-2,0.6-4,0.9-6c0.1-0.4,0.1-0.7,0.1-1
		s0-0.6,0.1-1c0.1-0.4,0.1-0.8,0.3-1.2c0.1-0.4,0.2-0.8,0.3-1.2l0.7-5.8c-0.4-0.2-0.7-0.3-0.9-0.3c-0.4,0-0.8,0.1-1.2,0.3l-0.2-0.2
		c-0.4,0.1-0.9,0.2-1.3,0.2c-0.5,0-0.9,0-1.3,0c-0.9,0-1.7,0-2.5-0.1c-0.8-0.1-1.6-0.1-2.5-0.2c-0.3,0-0.5,0-0.9,0
		c-0.3,0-0.6,0.1-1,0.2l-0.6,5.1c-0.1,0.4-0.1,0.7-0.3,1.1c-0.1,0.4-0.2,0.7-0.3,0.9v0.7c-0.2,1.1-0.4,2.3-0.5,3.4
		c-0.1,1.1-0.3,2.2-0.4,3.4l-0.5,0.4c0,0.2,0.1,0.4,0.2,0.5c0.1,0.2,0.2,0.4,0.1,0.6c-0.1,0.2-0.2,0.4-0.2,0.6
		c-0.1,0.1-0.1,0.3-0.1,0.5l-0.7,5.6c-0.1,0.8-0.5,1.2-1.4,1.2l-2.8-0.2h-4.2c-0.5,0-0.8-0.2-0.8-0.6c0.3-1.6,0.5-3.1,0.6-4.6
		c0.2-1.5,0.4-3.1,0.6-4.6l0.9-6.2c0.3-1.6,0.5-3.2,0.7-4.8c0.2-1.6,0.4-3.2,0.6-4.8c0.1-0.7,0.2-1.5,0.3-2.3
		c0.1-0.8,0.2-1.5,0.3-2.3c0.2-1.2,0.3-2.4,0.5-3.5c0.2-1.2,0.3-2.4,0.4-3.5c0.1-0.5,0.2-1,0.2-1.5c0-0.5,0.1-1,0.2-1.5
		c0.1-1.4,0.3-2.7,0.5-4c0.2-1.3,0.5-2.7,0.7-4l0.7-6l0.2-2.3c0.1-0.5,0.3-0.8,0.8-0.9c0.5-0.2,1.1-0.3,1.7-0.3
		c0.6-0.1,1.3-0.1,1.9,0c0.6,0.1,1.2,0.1,1.6,0.1c0.4,0,0.6,0.2,0.6,0.6l0.4-0.6h1.8c0.4,0,0.6,0.3,0.5,0.8
		c-0.2,1.7-0.4,3.4-0.7,5.1c-0.2,1.7-0.5,3.4-0.7,5.2l-0.8,6.2c-0.1,0.9-0.2,1.9-0.3,2.8c-0.1,0.9-0.2,1.9-0.4,2.8
		c-0.1,0.2-0.1,0.4-0.1,0.6c-0.1,0.1-0.1,0.2-0.1,0.3C189.7,25.5,189.7,25.6,189.6,25.7z"/>
	<path fill="#231F20" d="M237.7,11.9c-0.2,0.3-0.4,0.4-0.6,0.4h-6.3c-0.3,0-0.5,0.1-0.7,0.4c-0.2,0.3-0.3,0.6-0.4,1.1
		c-0.1,0.4-0.1,0.9-0.2,1.3c-0.1,0.5-0.1,0.9-0.2,1.2l-0.2,1.4c-0.1,0.2-0.2,0.4-0.2,0.5c-0.1,0.8-0.2,1.6-0.2,2.3
		c-0.1,0.8-0.1,1.5-0.2,2.3c-0.1,0.3-0.1,0.6-0.2,0.9c-0.1,0.3-0.1,0.6-0.2,0.9s0.1,0.5,0.5,0.5h2.3h1.8c0.6,0,1.2,0,1.8-0.1
		c0.6-0.1,1.3-0.1,1.9-0.1h0.8c0.6,0.1,0.8,0.4,0.8,1c-0.1,0.3-0.2,0.6-0.2,0.9c0,0.3-0.1,0.6-0.1,0.9l-1,7.3
		c-0.4,0.1-0.7,0.2-1,0.3c-0.3,0.1-0.6,0.1-0.9,0.1c-0.2,0-0.4,0-0.5,0c-0.2,0-0.3,0-0.5,0c-1,0-2.1,0-3.1,0.1
		c-1,0.1-2.1,0.1-3.1,0.2h-0.2c-0.3,0-0.5,0.4-0.7,1.2c-0.2,0.8-0.4,1.8-0.6,3c-0.2,1.2-0.3,2.4-0.5,3.7c-0.2,1.3-0.3,2.5-0.4,3.5
		l-0.2,1.1c0,0.1,0,0.2-0.1,0.2c0,0.4,0.2,0.5,0.5,0.5c0.4,0,0.8,0,1.3,0c0.4,0,0.9,0,1.4-0.1c0.4,0,0.8,0,1.3,0c0.4,0,0.9,0,1.4,0
		c0.3,0,0.5,0,0.7,0c0.2,0,0.4,0,0.7,0l5.1-0.2c0.5,0,0.7,0.2,0.6,0.7c0,0.1-0.1,0.3-0.2,0.5l-2.6,8.9c-0.1,0.3-0.3,0.4-0.6,0.5
		c-0.3,0.1-0.6,0.1-0.9,0.1c-0.7,0-1.4,0-2,0c-0.7,0-1.4,0-2,0c-2.1,0-4.2,0.1-6.3,0.2c-2.1,0.1-4.2,0.2-6.2,0.2
		c-0.7-0.1-1.4-0.2-2-0.2c-0.6,0-0.8-0.4-0.7-1.1c0.3-2.4,0.6-4.8,0.9-6.9c0.3-2.2,0.7-4.4,1-6.7l1.7-12.7c0.1-0.4,0.2-0.7,0.2-1
		c0.1-0.3,0.1-0.7,0.2-1c0.1-0.2,0.1-0.3,0-0.5c0-0.2,0-0.3,0-0.5c0.2-1.7,0.4-3.3,0.7-5c0.2-1.6,0.5-3.3,0.7-5l0.7-5.6
		c0.3-1.7,0.5-3.4,0.7-5.2c0.2-1.7,0.5-3.5,0.8-5.2V3c0.1-0.4,0.2-0.5,0.4-0.5c0.2,0,0.4,0,0.7-0.2c2.4,0,4.8,0,7.2-0.1
		c2.4-0.1,4.8-0.1,7.2-0.1c0.5,0,0.9,0,1.4,0c0.5,0,0.9,0,1.4,0c0.3,0,0.5,0,0.7,0c0.2,0,0.4,0,0.7,0h0.5c0.2,0.1,0.4,0.5,0.5,1.3
		c0.2,0.8,0.3,1.7,0.4,2.7s0.1,2,0.1,3.1c0,1,0,1.8-0.1,2.5c-0.1,0.3-0.3,0.5-0.7,0.6c-0.4,0.1-0.9,0.2-1.4,0.2c-0.5,0-1,0-1.5,0
		c-0.5,0-0.8,0-1.1,0c-0.2,0-0.3,0-0.4-0.1S237.8,12,237.7,11.9z"/>
	<path fill="#231F20" d="M82.8,78.9c0.3,0.3,0.4,0.6,0.5,1.1c0.1,0.4,0.1,0.8,0,1.1c-0.1,0.5-0.4,0.7-0.8,0.7c-0.5,0-0.9,0-1.4-0.1
		c-0.4-0.1-0.9-0.1-1.3-0.1h-0.6c-0.1,0-0.2,0-0.4,0c-0.2,0-0.3,0-0.4,0c-0.5,0-0.9,0-1.4,0c-0.5,0-1,0-1.4,0
		c-0.4,0-0.6,0.2-0.6,0.6c-0.1,0.4-0.1,0.7-0.2,1.1c-0.1,0.4-0.1,0.7-0.1,1.1c-0.1,0.4-0.2,0.8-0.2,1.1c-0.1,0.3-0.1,0.5-0.1,0.8
		c0,0.3-0.1,0.5-0.1,0.8c-0.2,1.5-0.3,2.9-0.5,4.4c-0.2,1.5-0.4,3-0.6,4.4l0.1,0.9v0.5c-0.2,0.4-0.3,0.9-0.3,1.5
		c-0.1,0.4-0.1,0.7-0.1,1.1c0,0.3-0.1,0.7-0.2,1.1v0.5c0,0.4,0,0.6-0.1,0.8c-0.1,0.4-0.1,0.7-0.3,1.1c-0.1,0.3-0.2,0.7-0.3,1
		c-0.1,0.6-0.1,1.2-0.1,1.8c0,0.6,0,1.1,0,1.5c-0.1,0.7-0.2,1.4-0.3,2.1c-0.1,0.8-0.2,1.5-0.3,2.2c-0.1,0.4-0.1,0.8-0.2,1.3
		c-0.1,0.4-0.1,0.9-0.1,1.3c-0.1,0.5-0.2,0.9-0.3,1.4c-0.1,0.5-0.2,1-0.3,1.5c-0.1,0.4-0.1,0.7-0.1,1c0,0.3,0,0.6-0.1,0.9
		c-0.1,0.4-0.1,0.8-0.1,1.1c0,0.3-0.1,0.7-0.1,1.1c-0.1,0.8-0.2,1.5-0.2,2.3c-0.1,0.7-0.1,1.5-0.2,2.4c-0.1,0.3-0.2,0.5-0.2,0.6
		c-0.1,0.3-0.1,0.5-0.1,0.8c0,0.3,0,0.5,0,0.8c-0.1,0.3-0.2,0.5-0.3,0.7c-0.1,0.1-0.3,0.2-0.6,0.3h-0.6c-0.6,0-1.2,0-1.8,0
		c-0.6,0-1.2,0-1.8,0c-0.3,0-0.6,0-0.9,0c-0.3,0-0.6,0-0.9,0c-0.3,0-0.5,0-0.8,0c-0.3,0-0.5,0-0.7,0c-0.2,0-0.4-0.1-0.5-0.2
		c-0.1-0.1-0.2-0.2-0.1-0.4v-0.2c0-0.3,0-0.5,0-0.7c0-0.2,0-0.5,0-0.7l0.5-4.1v-0.9c0.1-0.4,0.1-0.7,0.2-1.1
		c0.1-0.3,0.1-0.7,0.2-1.1c0.1-0.5,0.2-1,0.2-1.6c0-0.5,0.1-1,0.1-1.6c0.1-0.3,0.1-0.5,0.2-0.8c0.1-0.3,0.1-0.5,0.2-0.8l0.2-1.9
		l0.7-6.6c0.2-1.6,0.4-3.2,0.6-4.8c0.2-1.6,0.4-3.2,0.6-4.8c0.1-1,0.2-2.1,0.4-3c0.1-1,0.2-2,0.4-3l0.5-3.8c0.1-0.5,0.1-1,0.2-1.5
		c0.1-0.5,0.1-1,0.2-1.6c0-0.2,0-0.4,0.1-0.7c0.1-0.3,0.1-0.5,0.1-0.8c0-0.3-0.1-0.5-0.2-0.7c-0.1-0.2-0.3-0.3-0.5-0.3h-5
		c-0.2,0-0.4,0-0.5,0.1h-0.4h-0.8c-0.5-0.1-0.8-0.4-0.7-1c0.1-0.2,0.1-0.4,0.2-0.6c0.1-0.2,0.1-0.4,0.2-0.6l1.6-7.1l0.4-1.2
		c0-0.3,0.2-0.4,0.5-0.4h7.5h4.6h2.3h1.1c0.3,0,0.5,0,0.8,0.1c0.3,0.1,0.6,0.1,0.8,0.1c0.1,0,0.2,0,0.2,0c0,0,0.1,0,0.2,0h0.2h0.6
		c0.6-0.1,1.1-0.1,1.6-0.1c0.5,0,1,0,1.6,0c0.6,0.1,0.9,0.4,0.9,0.9l0.1,4.9v1C83.1,78.4,83,78.7,82.8,78.9z"/>
	<path fill="#231F20" d="M104.6,81.9c-0.2,0.3-0.4,0.4-0.6,0.4h-6.3c-0.3,0-0.5,0.1-0.7,0.4c-0.2,0.3-0.3,0.6-0.4,1.1
		c-0.1,0.4-0.1,0.9-0.2,1.3c-0.1,0.5-0.1,0.9-0.2,1.2l-0.2,1.4C96,88,96,88.2,96,88.3c-0.1,0.8-0.2,1.6-0.2,2.3
		c-0.1,0.8-0.1,1.5-0.2,2.3c-0.1,0.3-0.1,0.6-0.2,0.9c-0.1,0.3-0.1,0.6-0.2,0.9c-0.1,0.3,0.1,0.5,0.5,0.5H98h1.8
		c0.6,0,1.2,0,1.8-0.1c0.6-0.1,1.3-0.1,1.9-0.1h0.8c0.6,0.1,0.8,0.4,0.8,1c-0.1,0.3-0.2,0.6-0.2,0.9c0,0.3-0.1,0.6-0.1,0.9l-1,7.3
		c-0.4,0.1-0.7,0.2-1,0.3c-0.3,0.1-0.6,0.1-0.9,0.1c-0.2,0-0.4,0-0.5,0c-0.2,0-0.3,0-0.5,0c-1,0-2.1,0-3.1,0.1
		c-1,0.1-2.1,0.1-3.1,0.2h-0.2c-0.3,0-0.5,0.4-0.7,1.2s-0.4,1.8-0.6,3c-0.2,1.2-0.3,2.4-0.5,3.7c-0.2,1.3-0.3,2.5-0.4,3.5l-0.2,1.1
		c0,0.1,0,0.2-0.1,0.2c0,0.4,0.2,0.5,0.5,0.5c0.4,0,0.8,0,1.3,0c0.4,0,0.9,0,1.4-0.1c0.4,0,0.8,0,1.3,0c0.4,0,0.9,0,1.4,0
		c0.3,0,0.5,0,0.7,0c0.2,0,0.4,0,0.7,0l5.1-0.2c0.5,0,0.7,0.2,0.6,0.7c0,0.1-0.1,0.3-0.2,0.5l-2.6,8.9c-0.1,0.3-0.3,0.4-0.6,0.5
		c-0.3,0.1-0.6,0.1-0.9,0.1c-0.7,0-1.4,0-2,0c-0.7,0-1.4,0-2,0c-2.1,0-4.2,0.1-6.3,0.2c-2.1,0.1-4.2,0.2-6.2,0.2
		c-0.7-0.1-1.4-0.2-1.9-0.2c-0.6,0-0.8-0.4-0.7-1.1c0.3-2.4,0.6-4.8,0.9-6.9c0.3-2.2,0.7-4.4,1-6.7l1.7-12.7c0.1-0.4,0.2-0.7,0.2-1
		c0.1-0.3,0.1-0.7,0.2-1c0.1-0.2,0.1-0.3,0-0.5c0-0.2,0-0.3,0-0.5c0.2-1.7,0.4-3.3,0.7-5c0.2-1.6,0.5-3.3,0.7-5l0.7-5.6
		c0.3-1.7,0.5-3.4,0.7-5.2c0.2-1.7,0.5-3.5,0.8-5.2V73c0.1-0.4,0.2-0.5,0.4-0.5c0.2,0,0.4,0,0.7-0.2c2.4,0,4.8,0,7.2-0.1
		c2.4-0.1,4.8-0.1,7.2-0.1c0.5,0,0.9,0,1.4,0c0.5,0,0.9,0,1.4,0c0.3,0,0.5,0,0.7,0c0.2,0,0.4,0,0.7,0h0.5c0.2,0.1,0.4,0.5,0.5,1.3
		c0.2,0.8,0.3,1.7,0.4,2.7s0.1,2,0.1,3.1c0,1,0,1.8-0.1,2.5c-0.1,0.3-0.3,0.5-0.7,0.6c-0.4,0.1-0.9,0.2-1.4,0.2c-0.5,0-1,0-1.5,0
		c-0.5,0-0.8,0-1.1,0c-0.2,0-0.3,0-0.4-0.1C104.9,82.1,104.7,82,104.6,81.9z"/>
	<path fill="#231F20" d="M119.5,122.4c-0.4,0.5-0.7,1-1,1.5c-0.3,0.5-0.5,1-0.5,1.4v0.2c-0.2,1.6-0.7,2.6-1.3,3.1
		c-0.7,0.5-1.6,0.7-2.9,0.7H111h-0.5c-0.3,0-0.4-0.1-0.5-0.2c-0.1-0.1-0.1-0.2-0.1-0.4c0-0.1,0-0.2,0-0.4c0-0.1,0-0.2-0.1-0.2
		c-0.2,0-0.2,0.1-0.2,0.2c-0.1,0.1-0.1,0.2,0,0.4c0,0.1,0,0.3,0,0.4c-0.1,0-0.2,0-0.3,0c-0.1,0-0.2,0-0.3,0c-0.3,0-0.5-0.1-0.7-0.4
		c-0.3,0.3-0.5,0.4-0.9,0.4c-0.3,0-0.5-0.1-0.9-0.2c0.1-0.4,0.2-0.9,0.5-1.4s0.5-1.1,0.6-1.7c0.3-1,0.6-2,1-3c0.4-1,0.8-1.9,1-2.8
		l1.8-4.2c0.1-0.1,0.2-0.1,0.2-0.1c0.1,0,0.1,0,0.2-0.1c-0.1-0.1-0.1-0.2-0.2-0.3c-0.1-0.1-0.1-0.2,0-0.3c0.1-0.6,0.2-1.2,0.5-2
		c0.3-0.7,0.6-1.5,1-2.2c0.4-0.7,0.7-1.4,1.1-2c0.4-0.6,0.6-1.1,0.9-1.5c0.4-0.6,0.6-1.2,0.9-1.8c0.2-0.6,0.4-1.2,0.6-1.8
		c0.2-0.7,0.4-1.4,0.7-2.3c0.3-0.9,0.7-1.9,1.1-3c0.4-0.9,0.8-1.9,1.1-2.8c0.3-1,0.7-1.9,1.1-2.8l4.7-11.9l1.7-4.1
		c0.1-0.2,0.2-0.5,0.5-0.9c0.3-0.4,0.4-0.6,0.5-0.9c0.1-0.1,0.3-0.5,0.6-1.2c0.3-0.7,0.6-1.4,1-2.2c0.4-0.8,0.7-1.5,1-2.1
		c0.3-0.6,0.5-1,0.6-1c0.3,0,0.5,0.3,0.7,1c0.2,0.7,0.4,1.4,0.5,2.3c0.2,0.9,0.3,1.7,0.4,2.5c0.1,0.8,0.2,1.4,0.2,1.7l0.8,5.1
		c0.4,2.3,0.8,4.6,1.1,6.8c0.3,2.2,0.7,4.5,1.1,6.8c0.4,2.6,0.8,5.1,1.1,7.5c0.3,2.4,0.7,4.9,1.2,7.4c0.2,1.8,0.5,3.5,0.9,5.2
		c0.4,1.7,0.7,3.3,0.8,5c0.1,1.3,0.3,2.6,0.6,3.8c0.3,1.2,0.4,2.5,0.2,3.9l-0.1,0.4c-0.1,0.6-0.5,0.9-1.1,0.9s-1.2,0-1.6,0
		c-0.6,0-1.2,0-1.9,0c-0.6,0-1.2,0-1.8,0c-0.2,0-0.3,0-0.5,0c-0.2,0-0.3,0-0.4,0c-0.5,0-1,0-1.6,0c-0.6,0-0.9-0.2-1-0.7l-0.9-5.9
		c0-0.3-0.1-0.4-0.4-0.4h-0.2c-0.3,0-0.5,0-0.9,0s-0.6-0.1-0.9-0.2c-0.4,0-0.7,0-1,0.1c-0.3,0.1-0.6,0.1-1,0.1c-0.3,0-0.5,0-0.9,0
		c-0.3,0-0.6,0-0.9,0l-4.4,0.2c-0.1,0-0.2,0-0.2,0C119.6,122.4,119.6,122.4,119.5,122.4z M128,109.5c0.1-0.1,0.1-0.1,0.1-0.2
		c0.1-0.6,0-1.3-0.2-2c-0.3-0.7-0.3-1.5-0.2-2.3c0-0.1,0-0.2,0-0.3c0-0.1,0-0.2,0-0.3c0.1-0.5-0.2-0.9-0.7-1.2
		c-0.3,0.7-0.5,1.3-0.7,1.7c-0.2,0.4-0.4,0.7-0.6,0.9c-0.2,0.2-0.3,0.5-0.4,0.7c-0.1,0.2-0.2,0.6-0.3,1c0,0.2,0,0.3,0,0.4
		c0,0.1,0,0.2,0,0.4c-0.1,0.5-0.3,1.1-0.5,1.6s-0.4,1.1-0.6,1.5l0.5,0.8c0.5,0.1,0.9,0.1,1.4,0.1c0.4,0,0.9,0,1.4,0
		c0.3,0,0.7,0,1.1,0c0.4,0,0.6-0.2,0.7-0.6c0.1-0.2,0-0.4-0.2-0.8c-0.2-0.4-0.3-0.7-0.4-1L128,109.5z"/>
	<path fill="#231F20" d="M167.2,102.3c-0.3,0.4-0.7,1-1.2,1.8c-0.5,0.9-1.1,1.7-1.7,2.6c-0.6,0.9-1.1,1.6-1.6,2.3
		c-0.5,0.7-0.8,1-1,1c-0.2-0.1-0.3-0.2-0.4-0.4c0-0.2-0.1-0.3-0.2-0.5l-3-6.9L158,102c-0.2,0.2-0.2,0.3-0.2,0.4l-1.4,11.4
		c-0.2,1.5-0.4,3-0.6,4.4c-0.2,1.4-0.4,2.9-0.6,4.4l-0.6,5.5c-0.1,0.3-0.1,0.5-0.2,0.7c-0.1,0.2-0.3,0.4-0.5,0.4h-0.2
		c-0.2,0-0.3,0-0.5,0c-0.2,0-0.3,0-0.4,0c-0.3,0-0.5,0-0.7-0.1c-0.2-0.1-0.4-0.1-0.6-0.1c-0.2,0-0.4,0-0.5,0.1
		c-0.2,0.1-0.3,0.1-0.5,0.1s-0.4,0-0.5-0.1c-0.2-0.1-0.4-0.1-0.6-0.1c-0.3,0-0.5,0-0.6,0.1l-0.1-0.6h-0.2c-0.2,0-0.3,0.1-0.3,0.3
		c0,0.2-0.1,0.3-0.2,0.3h-0.9c-0.1,0-0.1,0-0.1,0c0,0-0.1,0-0.2,0c-0.3,0-0.5-0.1-0.7-0.4c-0.1-0.2-0.2-0.5-0.2-0.9
		c0-0.3,0-0.7,0.1-1c0.1-0.3,0.1-0.6,0.1-0.9c0.1-0.8,0.2-1.6,0.4-2.5c0.2-0.9,0.4-1.6,0.5-2.3c-0.1-0.2-0.1-0.4-0.1-0.6
		c0-0.2,0-0.4,0-0.6c0.1-0.4,0.2-0.8,0.3-1.2c0.1-0.4,0.1-0.8,0.2-1.2c0-0.4,0-0.8,0.1-1.2c0.1-0.4,0.1-0.8,0.2-1.2
		c0.3-1.8,0.5-3.6,0.7-5.4c0.2-1.8,0.5-3.6,0.7-5.4l1.1-8.7c0.2-1.2,0.3-2.5,0.5-3.8c0.2-1.3,0.4-2.6,0.5-3.9c0-0.4,0.1-0.9,0.2-1.4
		c0-0.2,0-0.4,0-0.5c0-0.2,0.1-0.3,0.1-0.5v-0.5c0.1-0.2,0.1-0.3,0.2-0.4c0.1-0.1,0.1-0.2,0.1-0.3c0.1-0.1,0-0.2,0-0.4
		c-0.1-0.1-0.1-0.2,0-0.4l0.2-1.5c0.2-1.4,0.3-2.9,0.4-4.6c0.1-1.6,0.5-3.1,1.1-4.4c0.1,0,0.1-0.1,0.1-0.2c0.1-0.2,0.1-0.5,0-0.8
		c0-0.3,0-0.5,0-0.7c0.1-0.4,0.1-0.8,0.2-1.2c0.1-0.5,0.2-0.7,0.3-0.6c0.1,0,0.3,0.2,0.5,0.6c0.2,0.4,0.5,0.8,0.7,1.4
		c0.2,0.5,0.4,1,0.6,1.4c0.2,0.4,0.3,0.7,0.4,0.8l5.1,12.6l2.6,5.5c0.1-0.1,0.2-0.2,0.2-0.2c0.1,0,0.1-0.1,0.2-0.2l6.5-9.2
		c0.2-0.4,0.4-0.6,0.6-0.7v-0.2c0.1-0.2,0.1-0.3,0.2-0.4c0.1-0.1,0.2-0.2,0.3-0.4l3.7-5.6l0.4-0.8c0.1-0.1,0.3-0.4,0.6-0.9
		c0.4-0.5,0.8-1,1.2-1.5c0.4-0.5,0.8-1,1.1-1.4c0.3-0.4,0.6-0.6,0.7-0.6c-0.1,0,0,0.2,0,0.7c0.1,0.4,0.1,1.1,0,2.1
		c-0.1,0.6-0.2,0.9-0.2,1.1c-0.1,0.1-0.1,0.4-0.1,0.7l-0.9,8.5c-0.1,0.3-0.1,0.5-0.1,0.8c0,0.3,0,0.5-0.1,0.8
		c-0.1,0.3-0.1,0.6-0.1,0.9c0,0.3-0.1,0.7-0.2,1c-0.1,0.3-0.1,0.6-0.1,0.9c0,0.3-0.1,0.7-0.1,1c-0.1,0.3-0.1,0.5-0.1,0.9
		c0,0.3,0,0.6,0,0.9c-0.1,0.5-0.2,0.9-0.2,1.4c0,0.5-0.1,1-0.2,1.5l-0.7,6c-0.6,5-1.2,9.9-1.6,14.7c-0.4,4.7-1,9.7-1.6,14.8v0.4
		c-0.3,0.6-0.8,0.9-1.3,0.9c-0.1,0-0.2,0-0.4-0.1c-0.1-0.1-0.3-0.1-0.4-0.1c-0.1,0-0.2,0-0.4,0.1c-0.2,0.1-0.3,0.1-0.4,0.1
		c-0.2,0-0.4,0-0.5-0.1c-0.1-0.1-0.3-0.1-0.6-0.1c-0.2,0-0.3,0-0.5,0.1c-0.2,0.1-0.4,0.1-0.5,0.1c-0.3,0-0.5-0.1-0.9-0.2
		c-0.3,0-0.7,0-1.1,0.1c-0.4,0.1-0.8,0.1-1.2,0.1c-0.7,0-1-0.4-0.9-1.1c0.1-0.4,0.1-0.9,0.2-1.3c0.1-0.5,0.1-0.9,0.2-1.3
		c0.3-1.9,0.5-3.7,0.6-5.6s0.4-3.7,0.6-5.5c0.1-0.6,0.1-1.1,0.2-1.7c0.1-0.5,0.2-1.1,0.3-1.7c0.2-1.3,0.3-2.6,0.4-3.9
		c0.1-1.3,0.2-2.5,0.4-3.8c0-0.2,0-0.3,0.1-0.4c0.1-0.1,0.1-0.3,0.1-0.4C167.3,102.7,167.2,102.5,167.2,102.3z"/>
	<path fill="#231F20" d="M182.7,120.9v0.5c0,0.1,0,0.2-0.1,0.2c-0.1,0-0.1,0-0.1,0.1l0.1,0.1c-0.3,0.5-0.5,1.2-0.6,2
		c0,0.2,0,0.3,0,0.5c0,0.2,0,0.4,0.1,0.5l0.1,0.2c-0.1,0.1-0.1,0.1-0.2,0.1c-0.1,0-0.1,0-0.1,0c0,0-0.1,0-0.2,0
		c-0.1,0.5-0.1,0.9-0.2,1.2c-0.1,0.3-0.2,0.7-0.3,1.3c-0.3-0.1-0.5-0.3-0.6-0.5c-0.1-0.3-0.2-0.5-0.3-0.9c-0.1-0.3-0.1-0.6,0-0.9
		c0-0.3,0-0.4,0-0.5c0-0.4,0.1-0.7,0.2-1l0.2-0.9c0.1,0,0.2-0.1,0.5-0.4c0.3-0.3,0.6-0.5,0.8-0.8
		C182.4,121.4,182.6,121.2,182.7,120.9C182.9,120.8,182.9,120.8,182.7,120.9z M185.8,120.1c0,0.1-0.1,0.2-0.2,0.3
		c-0.1,0.1-0.2,0.2-0.2,0.4c0.2,0.1,0.2,0.2,0.2,0.4c-0.1,0.1-0.1,0.2-0.1,0.3c0,0.1-0.1,0.2-0.2,0.3l-0.2,1.5
		c-0.2,0.4-0.3,0.7-0.4,1.1c0,0.2,0,0.4,0.1,0.5c-0.3,0.4-0.4,0.8-0.5,1.4c-0.1,0.6-0.1,0.8-0.1,0.5L184,128l-0.2,0.2h-0.2
		c0,0.1,0,0.2,0.1,0.2s0.1,0.1,0.1,0.3h-0.2l-0.1,0.4c-0.8-0.2-1.6-0.6-2.3-1.2c0.2-0.4,0.3-0.7,0.4-1c0.1-0.2,0.1-0.6,0.2-1.2
		l0.1,0.1c0.1,0,0.1-0.1,0.1-0.2c0-0.1,0-0.2,0.1-0.2h0.2c0-0.2,0-0.4,0.1-0.5c0.1-0.1,0.1-0.2,0.1-0.3l0.1-0.5c0-0.1,0-0.1,0-0.2
		c0-0.1,0-0.2,0-0.4c0-0.2,0-0.3,0.1-0.4c-0.1,0-0.1-0.1-0.1-0.2c0.1,0,0.1-0.1,0.1-0.2c0-0.1,0-0.3,0-0.5c0-0.2,0-0.4,0.1-0.5h0.2
		c0-0.1,0-0.2-0.1-0.2c-0.1,0-0.1-0.1-0.1-0.3h0.2l0.3-0.4c0-0.1,0-0.1,0-0.2c0-0.1,0-0.1,0-0.2c0.1-0.1,0.2-0.2,0.5-0.2
		c0.3-0.1,0.5-0.1,0.7-0.2c0.1,0,0.1,0,0.1,0c0,0,0,0,0.1,0h0.1c-0.1-0.1,0.1-0.2,0.3-0.2c0.1,0,0.2,0,0.4,0
		C185.5,120.1,185.7,120.1,185.8,120.1z M194.7,71.1c-0.1,0.3-0.1,0.6-0.1,0.9c0,0.4,0,0.7-0.1,1c0,0.2-0.1,0.5-0.2,0.9l-0.1,0.6
		c-0.1,0.4-0.2,0.8-0.2,1.2c-0.1,0.4-0.2,0.7-0.4,1.1l-0.3-0.3c-0.1-0.1-0.2-0.1-0.3-0.2c-0.1,0-0.2,0-0.3,0.1
		c-0.1,0.1-0.1,0.1-0.2,0.1c-0.1,0.2,0.1,0.3,0.4,0.3c0.3,0.1,0.5,0.2,0.7,0.5l-0.3,2.1c0,0.1,0,0.2-0.1,0.3
		c-0.1,0.1-0.1,0.3-0.2,0.5c-0.1,0.2-0.1,0.5,0,0.7c0,0.3,0,0.6,0,0.9c-0.1,0.1-0.1,0.2-0.1,0.4c0,0.2-0.1,0.3-0.2,0.5l-0.7,5.7
		c-0.1,0.1-0.2,0.2-0.2,0.3c0,0.1,0,0.2-0.1,0.3l-0.1,0.5c0,0.1,0,0.3,0,0.6c0,0.4,0,0.7-0.1,1.1c-0.1,0.2-0.1,0.3-0.1,0.4
		c0,0.1,0,0.2-0.1,0.3l-0.1,0.6c-0.1,0.8-0.2,1.7-0.4,2.7c-0.1,1-0.3,1.9-0.6,2.8l-0.2,2h-0.1c-0.1,0-0.1,0.1-0.1,0.2l0.1,0.1v0.2
		c0,0.1,0,0.2-0.1,0.2c-0.1,0-0.1,0.1-0.2,0.2c0,0.1,0,0.1,0,0.2c0,0.1,0,0.2,0,0.3c0,0.1-0.1,0.2-0.2,0.2l-0.5,4.4
		c0,0.1-0.1,0.2-0.2,0.2c-0.1,0-0.2,0.1-0.2,0.2c-0.1,0.2,0,0.3,0.1,0.4c0.1,0.1,0.2,0.2,0.2,0.3c-0.2,0.2-0.3,0.4-0.4,0.6
		c0,0.2-0.1,0.4-0.1,0.6l-0.1,0.5v0.1l-0.2-0.1c0,0.1,0,0.2,0.1,0.2h0.1l-0.2,1c-0.3,0-0.5,0-0.7,0c-0.2,0-0.3-0.2-0.4-0.4l-0.2,0.3
		v0.2l-0.1,0.1v0.2c-0.1,0.5-0.1,0.8,0.2,0.8c0.1,0,0.2-0.1,0.2-0.3c0.1-0.1,0.1-0.2,0-0.2c-0.1,0-0.1,0,0-0.1v-0.1l0.1-0.2
		c0.1,0.1,0.2,0.1,0.4,0.1c0.1,0,0.2,0,0.3,0c0.1,0,0.2,0,0.3,0c0,0.1-0.1,0.2-0.4,0.2c-0.1,0.3,0,0.4,0.1,0.4c0.1,0,0.2,0,0.2,0.1
		c-0.1,0.2-0.2,0.4-0.2,0.5s-0.1,0.4-0.2,0.7c0.1,0,0.1,0.1,0,0.3c-0.1,0.2-0.1,0.3,0,0.3l-0.2,0.2v-0.1c-0.1,0.2-0.3,0.3-0.5,0.3
		c0,0.1,0,0.2,0.1,0.2c0.1,0,0.1,0,0.2-0.1s0.1-0.1,0.2-0.1l-0.1,0.1v0.4c-0.2-0.1-0.4-0.2-0.5-0.2c-0.1,0-0.3,0-0.5,0l-0.2-0.2v0.2
		h-1.8H185l0.1-0.2l0.1-0.2l-0.3,0.4h-2.3c0.1-0.1,0.1-0.2,0-0.3c0-0.1,0-0.2,0-0.3c0-0.1,0.1-0.2,0.2-0.4c-0.1-0.1-0.1-0.1-0.1-0.2
		c0-0.3,0.1-0.4,0.4-0.4c0-0.1,0-0.2-0.1-0.2l-0.2,0.1c-0.1,0-0.2-0.1-0.2-0.2c0.1-0.2,0.2-0.4,0.2-0.5c0.1-0.2,0.1-0.4,0-0.6
		c0-0.2,0-0.4,0-0.7l0.3-2.6l0.1-0.1l0.2,0.1c0.1-0.4,0.1-0.5-0.1-0.5c-0.1,0-0.1,0-0.1,0c0,0-0.1,0-0.1,0l0.2-1.8
		c0.1,0,0.1-0.2,0.2-0.6h0.5c0-0.1-0.1-0.1-0.2-0.1c-0.2,0.1-0.3,0-0.4-0.1l0.2-1.9c0.3-3.7,0.5-7.7,0.7-11.7
		c0.2-4.1,0.5-8.1,1-12.1l0.2-0.5l0.1-0.4v-1.4l0.2-0.2c0-0.1,0-0.3-0.1-0.5l0.2-0.2c0-0.1,0-0.1-0.1-0.1c-0.1,0.1-0.1,0-0.1-0.1
		l0.3-0.7h-0.1c-0.1,0-0.1-0.1-0.1-0.2l0.4-3.3h3.3l2.1,0.6l3.3-0.6L194.7,71.1z M186.1,120.1c0.3,0.1,0.7,0.3,1.2,0.5
		c0.5,0.2,0.7,0.4,0.6,0.4v-0.1c0.1,0,0.2,0.1,0.3,0.2l0.2,0.2l0.1,0.2c0.2,0.2,0.3,0.2,0.4,0.3c0.1,0,0.1,0.1,0.1,0.2l-0.1,0.2h0.1
		c0.1,0,0.2,0.1,0.2,0.2l0.1,0.5c0.2,0.1,0.3,0.3,0.4,0.7c0,0.4,0,0.7,0,1.1c0,0.1-0.1,0.3-0.2,0.6c-0.1,0.3-0.2,0.6-0.4,0.9
		c-0.1,0.3-0.2,0.6-0.4,0.8c-0.1,0.2-0.2,0.3-0.2,0.2l-0.2,0.2c0,0.1-0.2,0.3-0.5,0.5c-0.4,0.3-0.5,0.4-0.5,0.5h-0.2
		c-0.1,0.1-0.4,0.3-1,0.5s-1.2,0.4-1.9,0.4c-0.1-0.1-0.1-0.2-0.1-0.3c0.1-0.3,0.1-0.4,0.2-0.4c0.1,0,0.1-0.1,0.1-0.2
		c0.1-0.1,0.1-0.2,0-0.2c0-0.1,0-0.1,0-0.2l0.1-0.5c0-0.2,0.1-0.5,0.2-0.7c0.1-0.3,0.2-0.5,0.2-0.6v-0.4h0.1l0.2-0.2l0.1-1.1
		c0.1-0.2,0.2-0.3,0.4-0.4l-0.3-0.2c0.1-0.1,0.1-0.2,0.2-0.3c0.1-0.1,0.2-0.2,0.2-0.3l0.3-1.9h0.2c0-0.1,0-0.2,0-0.3
		c0-0.1,0-0.2,0-0.4C186,120.3,186,120.2,186.1,120.1z"/>
</g>
</svg>
