<?xml version="1.0" encoding="utf-8"?>
<!-- Generator: Adobe Illustrator 17.1.0, SVG Export Plug-In . SVG Version: 6.00 Build 0)  -->
<!DOCTYPE svg PUBLIC "-//W3C//DTD SVG 1.1//EN" "http://www.w3.org/Graphics/SVG/1.1/DTD/svg11.dtd">
<svg version="1.1" id="Layer_1" xmlns="http://www.w3.org/2000/svg" xmlns:xlink="http://www.w3.org/1999/xlink" x="0px" y="0px"
	 viewBox="0 0 441.6 96.4" enable-background="new 0 0 441.6 96.4" xml:space="preserve">
<path fill="#FFFFFF" d="M418.4,74.9c-27.6-5.2-384.8,2.4-395.8,12.4c-3.4,3.1,0.2,6.6,3.1,5.4c15.8-6.3,312.6-10.6,374.2-5.6
	c-0.4,0.6-0.8,1.1-1.2,1.7c-2,2.7,0,6,2.4,6.6c1.2,1.1,3,1.6,4.8,0.3c5.8-4.1,11.1-9,15.9-14.2C424.3,78.7,421.7,75.1,418.4,74.9z"
	/>
<path fill="#FFFFFF" d="M94.1,17.5C80.8,35.5,67,60.4,66,62.1c-1.1,1.8-2.5,2.5-3.8,2.5c-3,0-7.3-4.5-7.3-7.5c0-0.6,0.1-1.1,0.4-1.7
	C58,50,65.9,35.1,69.5,28.7c-5.7,5.4-21.2,24.5-28.6,24.6c-6.2,0.1-9.5-5.3-9.5-10.8c0-3.4,0.4-8.7,0.8-12.4
	C26.6,38.7,13.6,59.8,11.3,63c-1,1.4-2.6,2.1-4.1,2.1C3.9,65.2,0,62,0,58.7c0-1,0.3-1.9,1-2.7C2.4,54.3,32.7,7.5,34.5,3.9
	c0.4-0.9,0.9-1.2,1.5-1.2c1.4,0,3.1,1.9,5.5,3.4c2.8,1.7,7.1,2.4,7.1,7c0,0.8-0.1,1.6-0.3,2.6c-1.5,5.9-6.5,20.4-7.4,26.5
	c-0.1,0.6-0.2,1.6,0.7,1.6c0.5,0,1.2-0.3,2.3-1.1c7.7-5.5,33-32.3,38.1-37.4c0.9-0.8,1.6-1.1,2.7-1.1c1.2,0,2.7,0.5,4.8,1.7
	c3.6,2,4.6,3,5.8,7.1c0.3,0.9,0.4,1.5,0.4,1.9C95.6,15.8,95.1,16.1,94.1,17.5z"/>
<path fill="#FFFFFF" d="M122.7,53.1c-5.4,7.6-12.1,13-16.2,13c-4.8,0-7.3-4.2-8.3-8.2c-3.8,3.5-7.8,6.3-10,6.3
	c-1.5,0-3.2-0.3-4.5-3.3c-1.4-3-3.6-2.9-3.6-5.8C80,42.9,96.4,27.3,101.8,24.9c0.7-0.3,1.4-0.5,2.1-0.5c1.4,0,3,0.7,5.5,2.7
	c0.9,0.6,1.8,2,2.5,3.8c0.9-1.6,1.6-2.6,2-3c0.6-0.7,1.3-1,2.1-1.1c2.8,0,6.2,3.2,6.2,6c0,0.8-0.2,1.5-0.8,2.1
	c-2.4,2.4-14.7,19.2-14.7,21c0,2.1,1.1,2.9,2.1,2.9c2.4,0,6.7-2.3,13.6-10.8c0.4-0.5,0.9-0.7,1.3-0.7c0.6,0,1.1,0.5,1.1,1.5
	C124.6,49.7,124.1,51.2,122.7,53.1z M107.7,33c-4.9,0-19.5,18.5-19.4,23.6c0,0.7,0.3,1.1,0.8,1.1c4.6,0,18-19.7,20.5-23.5
	C109.1,33.3,108.5,33,107.7,33z"/>
<path fill="#FFFFFF" d="M188.8,51.4c-3.4,6.2-14.5,13.9-20.5,14c-2.9,0-6.9-1.7-9.8-4.8c-1.9-2.1-4.7-3.7-4.8-9.7
	c-0.1-8.2,18.2-28.3,25.9-28.5c2.5,0,3.1,0.6,5.6,4.3c1.1,1.6,3,3.7,3,6.5c0.1,11-16.4,20-25.9,20.1c-0.1,0-0.2,0-0.3,0
	c-0.4,1.2-0.7,2.3-0.7,3.3c0,2.3,1.4,3.9,4.9,3.8c10-0.1,17.6-10.3,20.2-11.9c0.1-0.1,0.3-0.1,0.3-0.1c0.9,0,2,1,2,2.2
	C188.9,50.8,188.9,51.1,188.8,51.4z M180.5,33.4c-4.4,0-12.7,10.1-15,13.4c6,0.1,15.4-10.7,15.4-13
	C180.9,33.6,180.8,33.4,180.5,33.4z"/>
<path fill="#FFFFFF" d="M244.9,11.4c-10.7,12-26.7,40.4-31.2,49.3c-1.1,2.3-2.4,3.1-3.6,3.1c-3.2,0-7.3-5.8-7.3-8.6
	c0-1,0.3-2.1,1-3.1c3.8-5.7,23.3-37.7,31.8-49.3c0.7-1,1.4-1.3,2.1-1.3c2.5,0,8.7,3.8,8.8,6.5C246.5,9,246,10.2,244.9,11.4z"/>
<path fill="#FFFFFF" d="M264.5,27.2c-0.1,0-0.1,0-0.3,0c-1.7-0.4-3.9-0.6-6.1-0.5c-2.4,0-5.1,0.2-7.7,0.5
	c-7.7,10.4-16.4,23.9-16.3,29.5c0,1.6,0.8,2.6,2.4,2.6c4,0,12.6-8.4,15.7-11.8c0.7-0.7,1.1-1,1.5-1c0.4,0,0.6,0.4,0.6,1.1
	c0,1.5-0.8,3.9-1.8,5c-3.2,3.7-10.4,10.9-15.6,10.9c-2.2,0-4.6-1-7.2-3.5c-2.3-2.1-3.1-4.2-3.1-6.3c0-1.2,0.2-2.4,0.6-3.6
	c1.8-5.6,6.5-13.8,11.5-21.5c-0.8,0-1.4,0.1-2,0.1c-0.2,0-0.3-0.1-0.4-0.1c-2.2,0-4.5-2.8-4.5-4.5c0-0.7,0.4-1.2,1.4-1.2
	c2.9,0,5.9,0.1,8.8,0.1c0.1,0,0.3,0,0.4,0c5.1-7.7,9.9-14.3,11-16.5c0.3-0.6,0.9-0.9,1.5-0.9c1.8,0,7.8,3.7,7.8,5.7
	c0,0.7-0.4,1.5-1.4,2.3c-1.1,1-4,4.4-7.6,9.1c4.9-0.1,8.9-0.3,9.6-0.4c1.5-0.1,2.1,2,2.1,3.2C265.5,26.4,265.2,27.2,264.5,27.2z"/>
<path fill="#FFFFFF" d="M363.5,5.5c-15.4,16.2-33.5,37.8-45.6,53.4c-1.5,2.1-3.3,2.8-5.1,2.8c-3.2,0-10-3.7-10.1-7.1
	c0-0.5,0.1-1.1,0.2-1.8c0.7-1.9,8.9-19.9,11.2-26.4c-8.3,7.2-29.7,30.7-33.3,34.8c-1,1.1-1.9,1.7-2.7,1.7c-0.9,0-2-0.6-3.5-1.4
	c-3.9-2.1-6.3-6.3-6.3-10.7c0-1,0.2-1.6,0.6-2.4c0.6-1.5,24.6-44.7,26.3-47.7c0.3-0.4,0.6-0.6,1.2-0.6c1.4,0,3.9,0.9,8.8,2.1
	c0.6,0.2,2.3,2,2.4,3.8c0,0.4-0.1,0.9-0.3,1.3c-4.7,7.7-18.5,29.4-23.1,38.6c11.9-11.9,36.6-40,39.3-42.6c1-1,2-1.3,2.9-1.3
	c1.7,0,10.3,3.7,10.3,5.2c0,0.3-0.1,0.5-0.3,0.9c-1.4,2.7-15.3,24-19.2,38.3c5.8-7.2,34.3-39.4,35.9-41c2.2-2.1,5.5-3.9,8.6-4
	c1.6,0,3.1,0.6,3.1,1.8C364.8,3.7,364.4,4.6,363.5,5.5z"/>
<path fill="#FFFFFF" d="M371.5,33.8c-0.2,9.5-13.8,28.1-22.3,28.2c-3.3,0-6.1-2.3-7.6-4c-1.1-1.2-4.8-3.8-4.8-8.1
	c-0.1-11.7,14.8-26,20.4-28.3c0.8-0.4,1.5-0.4,2.1-0.5c2.8,0,4.9,2.3,5.9,3.1c2.6,2.3,6.3,2.4,6.4,8.9
	C371.5,33.4,371.5,33.6,371.5,33.8z M364.7,30.1c-5.6,0.1-20.1,16.8-20,23.6c0,1.7,1.1,2.8,3.4,2.8c4.2,0,18.4-18.7,18.3-24.6
	C366.3,30.8,365.8,30.1,364.7,30.1z"/>
<g>
	<path fill="#FFFFFF" d="M155.8,49.7c-0.2,0-0.4,0.1-0.7,0.4c-0.8,0.6-7.3,7.6-10.4,7.6c-4.1,0-4.4-7.3-4.4-9.4
		c7.3-6.6,16.6-9.3,19.5-15.1c0.7-1.3-0.6-6.4-1.9-6.9c-0.9-0.3-1.8,0.5-2.1,1.2c-2.1,4.4-12.2,14.7-21.5,15.1l17.1-23.9l0,0
		c1.8-2.6,3.6-5.1,5-6.9c0.3-0.4,0.5-1,0.5-1.5c0-3.3-5.5-6.4-7.2-6.4c-0.3,0-0.3,0.1-0.4,0.2c-2.5,5-35.4,52.9-36.9,55
		c-0.4,0.7-0.7,1.2-0.7,1.7c0,1.8,4.8,4.1,6.4,4.1c0.9,0,1.7-0.4,2.3-1.7c1.6-3.5,5.3-9.4,9.8-15.4c1.5,6.4,2.6,16.9,11.6,16.8
		c5.3-0.1,11.5-5.8,14.3-11.2c0.3-0.5,0.6-1,0.6-1.6C156.7,51.1,156.3,49.7,155.8,49.7z"/>
	<path fill="#FFFFFF" d="M135.5,40.9c1.5,0,21.6-14.6,21.6-14.6l-1.6,7.9l-20,11.9l-3.7-2.4C131.8,43.5,132.2,39.3,135.5,40.9z"/>
</g>
<path fill="#FFFFFF" d="M439.5,23c-0.7-0.3-1.4,0.2-1.8,0.7c-4,2.9-19.3,13.9-20.6,13.9l15.9-22.3c1.8-2.6,3.6-5.1,5-6.9
	c0.3-0.4,0.5-1,0.5-1.5c0-3.3-5.5-6.4-7.2-6.4c-0.3,0-0.3,0.1-0.4,0.2c-2.2,4.6-29.6,44.4-35.7,53.3c-0.6,0.9-1,1.5-1.2,1.7
	c-0.4,0.7-0.7,1.2-0.7,1.7c0,0.8,1,1.7,2.2,2.5c1.5,0.9,3.3,1.6,4.2,1.6c0.9,0,1.7-0.4,2.3-1.7c1.6-3.5,5.3-9.4,9.8-15.4
	c1.5,6.4,2.6,16.9,11.6,16.8c5.3-0.1,11.5-5.8,14.3-11.2c0.3-0.5,0.6-1,0.6-1.6c0-0.7-0.4-2.1-0.9-2.1c-0.2,0-0.4,0.1-0.7,0.4
	c-0.8,0.6-7.3,7.6-10.4,7.6c-4.1,0-4.4-7.3-4.4-9.4c7.3-6.6,16.6-9.3,19.5-15.1C442.1,28.6,440.8,23.5,439.5,23z"/>
<path fill="#FFFFFF" d="M392,24.7c0,0-0.7-1.8-0.7-3.3c0-1-0.6-1.3-1.6-1.3c-4.8,0-8.1,5.4-10.4,9c-0.7,1-0.8,2.2-0.8,3.1
	c0,1.1,0.3,2.1,0.3,2.8c0,0.2-0.1,0.3-0.1,0.5c-0.2,0.5-2.1,3.7-4.7,7.6c-6.4,9.3-9.2,12.8-9.8,13.6c-0.4,0.7-0.7,1.2-0.7,1.7
	c0,1.8,2.8,3.7,4.5,3.7c0.9,0,3.7,0,4.3-1.3c1.2-2.6,15.8-23.6,15.8-23.6"/>
<path fill="#FFFFFF" d="M401.3,30.9l0-0.1c0.5,0.5,0.7,1,1.5,1.4c0.7,0.4,1.3,0.7,2.1,0.9c0.6,0.2,1.3,0.3,1.9,0.3
	c0.1-0.2,0.1-0.3,0.1-0.3s3.2-9.1,2.8-11.4c-1.5-7.7-19.2,3.5-19.4,3.7l-7.8,5.2l2.5,11.6c0,0,3.2-5,5.9-7.5c2.6-2.4,7.9-3.7,10-3.9
	C401.1,30.7,401.2,30.8,401.3,30.9z"/>
<path fill="#FFFFFF" d="M397.3,31.9c1.4-1.3,3.9-1.5,5.7-1.2c0.4,0.1,1.1,0.1,1.5,0.3c0.5,0.3,0.6,0.9,1.3,0.9
	c0.7,0.1,1.6-0.9,2-1.3c0.7-0.7,1.2-1.6,1.3,0c0.1,1.1-0.7,2.4-1.4,3.1c-0.8,0.8-2.3,1.7-3.5,1.9c-1.6,0.2-2.6-0.8-3.7-1.7
	c-0.9-0.7-2.1-1.1-2.8-1.9L397.3,31.9z"/>
</svg>
