<?xml version="1.0" encoding="utf-8"?>
<!-- Generator: Adobe Illustrator 17.1.0, SVG Export Plug-In . SVG Version: 6.00 Build 0)  -->
<!DOCTYPE svg PUBLIC "-//W3C//DTD SVG 1.1//EN" "http://www.w3.org/Graphics/SVG/1.1/DTD/svg11.dtd">
<svg version="1.1" id="Layer_1" xmlns="http://www.w3.org/2000/svg" xmlns:xlink="http://www.w3.org/1999/xlink" x="0px" y="0px"
	 viewBox="96.3 179.5 458.2 188.2" enable-background="new 96.3 179.5 458.2 188.2" xml:space="preserve">
<g>
	<path d="M137.8,187c0.1,0.1,0.1,0.2,0.1,0.3c0,0.1-0.1,0.1-0.1,0.2c0,0.2,0,0.4-0.1,0.6c-0.1,0.2-0.1,0.4-0.1,0.5
		c-0.1,0.5-0.1,0.9-0.1,1.3c0,0.4,0,0.8-0.1,1.2c0,0.1,0,0.3-0.1,0.5c-0.1,0.2-0.1,0.3-0.2,0.5l-0.1,0.3c0.1,0.2,0.1,0.4,0.2,0.6
		c0,0.2,0,0.4-0.1,0.6c-0.1,0.3-0.1,0.6-0.2,0.8c0,0.3-0.1,0.6-0.2,0.9v0.3l-0.1,0.3v0.2c-0.1,0.4-0.2,0.6-0.3,0.8
		c-0.1,0.2-0.2,0.4-0.3,0.8c0,0.1,0,0.3,0.1,0.4c0,0.1,0,0.3-0.1,0.4c0,0.1-0.1,0.2-0.2,0.5l-0.4-0.3c-0.8-0.8-1.6-1.4-2.4-1.9
		c-0.8-0.5-1.7-1-2.7-1.5c-0.8-0.3-1.5-0.6-2-0.7c-0.6-0.1-1.3-0.2-2-0.2h-2.1c-2,0-3.9,0.7-5.7,2c-1.7,1.4-2.8,3.4-3.1,6.1
		c-0.2,1.9,0.1,3.7,0.9,5.4c0.8,1.7,1.8,3.4,3,5.1c1.2,1.6,2.5,3.2,3.9,4.8c1.4,1.6,2.5,3.1,3.4,4.6c0.6,0.9,1.1,1.8,1.5,2.7
		c0.5,0.9,0.9,1.8,1.2,2.8l1.2,3.5c0.8,2.5,1,5.2,0.6,8c-0.2,1.6-0.5,3.2-1,4.9c-0.5,1.7-1.1,3.3-2,4.9l-0.5,0.9
		c-0.6,1.1-1.3,2-1.9,2.8c-0.6,0.7-1.3,1.4-1.9,2c-0.6,0.6-1.3,1.2-2,1.7c-0.7,0.5-1.4,1.1-2.2,1.8c-0.1,0.1-0.4,0.2-0.6,0.4
		c-0.3,0.2-0.5,0.3-0.7,0.3c-0.2,0-0.5-0.1-0.7-0.4l-0.1,0.4c-1.2,1-2.7,1.7-4.5,2c-1.8,0.3-3.3,0.4-4.7,0.4c-0.7,0-1.3-0.1-1.9-0.2
		c-0.6-0.1-1.2-0.2-1.9-0.4l-1.5-0.3c-0.8-0.1-1.6-0.4-2.4-0.7c-0.8-0.3-1.5-0.7-2.2-1.1c-0.7-0.4-1.2-0.9-1.6-1.4
		c-0.4-0.5-0.5-1-0.5-1.7c0-0.2,0.1-0.5,0.2-0.9l0.5-1.5c-0.2-0.3-0.3-0.7-0.3-1.2c0-0.4,0-0.8-0.2-1.2c0.1-0.3,0.2-0.6,0.3-0.9
		c0.1-0.3,0.2-0.6,0.3-1c0-0.3,0-0.6,0.1-0.9c0-0.2,0.1-0.5,0.2-0.9c0-0.3,0-0.6,0.1-0.9c0-0.2,0.1-0.5,0.2-0.9c0.1-0.5,0.1-1,0-1.4
		c-0.1-0.5-0.1-0.9,0-1.4c0.1-0.6,0.4-1.2,0.9-1.8l0.4,0.3c0.6,0.8,1.4,1.5,2.4,2.1c1,0.6,2,1.2,3,1.6c1,0.5,2.1,0.8,3.1,1.1
		c1,0.3,1.9,0.4,2.6,0.4c0.7,0,1.5-0.1,2.3-0.3s1.6-0.6,2.4-1.2c0.7-0.6,1.4-1.3,1.9-2.3c0.6-1,0.9-2.2,1.2-3.7
		c0.2-1.7-0.1-3.4-0.8-5.1c-0.7-1.6-1.6-3.1-2.7-4.5c-1-1.4-2.1-2.6-3.2-3.7c-1.1-1.1-1.9-2-2.4-2.7c-2.2-2.2-3.6-4.3-4.5-6.3
		c-0.8-2-1.3-3.7-1.6-5.1c0.1-0.5,0-1.2-0.4-2.2c-0.4-1-0.6-1.8-0.6-2.6c-0.1-1-0.1-2-0.1-3s0.1-2.1,0.2-3c0.1-0.6,0.3-1.3,0.4-1.9
		c0.1-0.6,0.3-1.2,0.6-1.8l0.3-0.8c0.5-1.9,1.3-3.6,2.3-5.2c1-1.6,2.3-3.1,3.7-4.4c1.4-1.3,2.9-2.5,4.5-3.4c1.6-0.9,3.2-1.6,4.9-2
		c0.1-0.1,0.4-0.2,0.9-0.4c0.5-0.2,1-0.3,1.3-0.3c0.1,0,0.3,0,0.5,0.1c0.2,0.1,0.3,0.1,0.5,0.1c0.5,0,1,0,1.5-0.1
		c0.5-0.1,1.1-0.1,1.6-0.1c0.9,0,2.1,0,3.6,0.1c1.5,0.1,3,0.2,4.5,0.4c1.5,0.2,2.7,0.5,3.8,0.9c1,0.4,1.5,0.9,1.5,1.4
		c-0.1,0.2-0.1,0.5-0.2,0.7c0,0.3-0.1,0.5-0.2,0.6c0,0.4,0,0.7-0.1,0.9C137.7,186.4,137.8,186.7,137.8,187z"/>
	<path d="M153.2,215.3c0.1,0.1,0.3,0.2,0.8,0.2h0.6c2,0.1,4.1,0.2,6.2,0.2c2.1,0,4.2,0,6.2,0h1.9c0.3-0.3,0.4-0.5,0.4-0.8
		c0-0.2,0-0.5,0.1-0.7l1.2-9.5c0.1-1.4,0.3-2.8,0.6-4.3c0.2-1.5,0.5-2.9,0.7-4.4l1.5-11.7v-0.4c0-0.3,0.2-0.6,0.5-0.7
		c0.3-0.1,0.4-0.2,0.3-0.2h0.3c1-0.1,1.9-0.1,2.9-0.1c0.9,0,1.9,0,2.9,0h0.5c0.6,0,1,0.1,1.3,0.3c0.2-0.2,0.4-0.3,0.6-0.3
		c0.2,0,0.4,0,0.6,0h2.1c0.4,0.1,0.6,0.4,0.6,0.8c-0.6,3.9-1.1,7.8-1.7,11.7c-0.6,3.9-1.1,7.8-1.6,11.7l-3.6,28.8
		c-0.5,3.9-1.1,7.8-1.7,11.7c-0.7,3.9-1.2,7.8-1.7,11.7c-0.1,1.2-0.7,1.8-2,1.8c-0.8-0.1-1.7-0.2-2.5-0.3c-0.8,0-1.7-0.1-2.5-0.1
		h-4.5c-0.6-0.1-0.8-0.5-0.7-1l0.1-1.3c0.3-2.7,0.7-5.3,1.1-8c0.4-2.7,0.8-5.4,1.2-8c0.1-0.5,0.1-0.9,0.1-1.4c0-0.4,0-0.9,0.1-1.4
		c0.1-0.6,0.2-1.1,0.4-1.6c0.2-0.5,0.3-1.1,0.4-1.6l0.9-7.7c-0.5-0.3-0.9-0.4-1.3-0.4c-0.5,0-1,0.1-1.6,0.4l-0.2-0.3
		c-0.6,0.1-1.1,0.2-1.8,0.3c-0.6,0-1.2,0.1-1.8,0.1c-1.2,0-2.3,0-3.4-0.1c-1.1-0.1-2.2-0.2-3.4-0.3c-0.3,0-0.7,0-1.1,0
		c-0.4,0-0.9,0.1-1.4,0.3l-0.8,6.8c-0.1,0.5-0.2,1-0.4,1.5c-0.2,0.5-0.3,0.9-0.4,1.3v0.9c-0.3,1.5-0.5,3.1-0.7,4.6
		c-0.2,1.5-0.4,3-0.6,4.6l-0.7,0.5c0,0.3,0.1,0.5,0.3,0.7c0.2,0.2,0.2,0.5,0.2,0.8c-0.1,0.2-0.2,0.5-0.2,0.8
		c-0.1,0.1-0.1,0.4-0.1,0.7l-0.9,7.5c-0.1,1.1-0.7,1.7-1.9,1.7l-3.8-0.3h-5.7c-0.7,0-1-0.3-1-0.8c0.3-2.1,0.6-4.2,0.8-6.2
		c0.2-2.1,0.5-4.1,0.8-6.2l1.3-8.3c0.3-2.2,0.6-4.3,0.9-6.5c0.2-2.2,0.5-4.3,0.8-6.5c0.1-1,0.3-2,0.4-3c0.1-1,0.2-2.1,0.4-3
		c0.2-1.6,0.4-3.2,0.7-4.8c0.2-1.6,0.4-3.2,0.6-4.8c0.1-0.7,0.2-1.4,0.3-2c0-0.7,0.1-1.3,0.3-2c0.1-1.8,0.4-3.6,0.7-5.4
		c0.3-1.8,0.6-3.6,0.9-5.4l0.9-8.1l0.3-3.1c0.1-0.6,0.4-1,1.1-1.3c0.7-0.2,1.4-0.3,2.3-0.4c0.8-0.1,1.7-0.1,2.6,0
		c0.9,0.1,1.6,0.1,2.1,0.1c0.5,0,0.8,0.3,0.8,0.8l0.5-0.8h2.4c0.6,0,0.8,0.4,0.7,1c-0.3,2.3-0.6,4.6-0.9,6.9c-0.3,2.3-0.6,4.6-1,7
		l-1,8.3c-0.1,1.3-0.3,2.5-0.4,3.8c-0.1,1.3-0.3,2.5-0.5,3.8c-0.1,0.2-0.1,0.5-0.1,0.8c-0.1,0.1-0.1,0.3-0.1,0.4
		C153.4,215,153.4,215.2,153.2,215.3z"/>
	<path d="M200.4,251.2c-0.5,0.6-0.9,1.3-1.4,2c-0.4,0.7-0.7,1.3-0.7,1.9v0.3c-0.3,2.1-0.9,3.5-1.8,4.1c-0.9,0.7-2.2,1-3.9,1h-3.7
		h-0.7c-0.3,0-0.6-0.1-0.6-0.2c-0.1-0.1-0.1-0.3-0.1-0.5c0-0.2,0-0.3,0.1-0.5c0-0.1,0-0.2-0.2-0.2c-0.2,0-0.3,0.1-0.3,0.3
		c-0.1,0.1-0.1,0.3-0.1,0.5c0,0.2,0.1,0.4,0.1,0.6c-0.1,0-0.3,0-0.4,0.1c-0.1,0-0.3,0.1-0.4,0.1c-0.4,0-0.7-0.2-0.9-0.5
		c-0.3,0.4-0.7,0.5-1.2,0.5c-0.4,0-0.7-0.1-1.2-0.3c0.1-0.6,0.3-1.2,0.7-1.9c0.4-0.7,0.7-1.5,0.8-2.3c0.3-1.4,0.8-2.7,1.4-4
		c0.6-1.3,1-2.5,1.4-3.7l2.4-5.7c0.1-0.1,0.2-0.1,0.3-0.1c0.1,0,0.2,0,0.3-0.1c-0.1-0.1-0.1-0.3-0.2-0.4c-0.1-0.1-0.1-0.2,0-0.4
		c0.1-0.8,0.3-1.6,0.7-2.6c0.4-1,0.8-2,1.3-2.9c0.5-1,1-1.9,1.5-2.7c0.5-0.8,0.9-1.5,1.2-2c0.5-0.8,0.9-1.6,1.2-2.4
		c0.3-0.8,0.5-1.6,0.8-2.5c0.2-0.9,0.6-1.9,0.9-3c0.4-1.2,0.9-2.5,1.5-4c0.6-1.3,1.1-2.5,1.5-3.8c0.5-1.3,1-2.6,1.5-3.8l6.3-15.9
		l2.3-5.4c0.1-0.3,0.3-0.7,0.6-1.2c0.3-0.5,0.6-0.9,0.6-1.2c0.1-0.1,0.4-0.7,0.8-1.6c0.4-0.9,0.8-1.9,1.3-3c0.5-1,0.9-2,1.3-2.9
		c0.4-0.9,0.6-1.3,0.8-1.3c0.3,0,0.7,0.5,0.9,1.4c0.3,0.9,0.5,1.9,0.7,3.1c0.2,1.2,0.4,2.3,0.5,3.4c0.1,1.1,0.2,1.8,0.3,2.3l1,6.8
		c0.6,3.1,1.1,6.2,1.5,9.2c0.5,3,0.9,6,1.4,9.2c0.6,3.5,1,6.9,1.5,10.1s1,6.5,1.7,9.9c0.2,2.4,0.6,4.7,1.2,7c0.6,2.3,1,4.5,1.1,6.7
		c0.1,1.7,0.4,3.5,0.8,5.1c0.4,1.7,0.5,3.4,0.3,5.2l-0.1,0.5c-0.1,0.8-0.6,1.2-1.5,1.2s-1.6,0-2.2,0c-0.8,0-1.7,0-2.5-0.1
		c-0.8,0-1.6-0.1-2.4-0.1c-0.2,0-0.4,0-0.6,0.1c-0.2,0-0.4,0.1-0.5,0.1c-0.6,0-1.3,0-2.1,0c-0.8,0-1.2-0.3-1.4-0.9l-1.2-8
		c0-0.3-0.2-0.5-0.5-0.5H214c-0.4,0-0.7,0-1.2,0s-0.8-0.1-1.2-0.2c-0.5,0-0.9,0.1-1.3,0.2c-0.4,0.1-0.8,0.2-1.3,0.2
		c-0.4,0-0.7,0-1.2-0.1c-0.4,0-0.8-0.1-1.2-0.1l-6,0.2c-0.1,0-0.2,0-0.3,0.1C200.5,251.2,200.4,251.2,200.4,251.2z M211.8,233.9
		c0.1-0.1,0.1-0.2,0.1-0.3c0.1-0.8,0-1.7-0.3-2.7c-0.4-0.9-0.5-2-0.3-3.1c0-0.1,0-0.3,0.1-0.4c0-0.1,0.1-0.2,0.1-0.4
		c0.1-0.7-0.2-1.3-0.9-1.7c-0.4,1-0.7,1.7-1,2.3c-0.3,0.5-0.6,0.9-0.8,1.3c-0.2,0.3-0.4,0.6-0.6,0.9c-0.2,0.3-0.3,0.8-0.4,1.3
		c0,0.2,0,0.4-0.1,0.6c0,0.2-0.1,0.3-0.1,0.5c-0.1,0.7-0.4,1.4-0.7,2.1c-0.3,0.7-0.6,1.4-0.8,2l0.7,1c0.6,0.1,1.2,0.1,1.8,0.2
		c0.6,0,1.2,0.1,1.8,0.1c0.4,0,0.9,0,1.4-0.1c0.5,0,0.8-0.3,0.9-0.8c0.1-0.2,0-0.6-0.3-1c-0.3-0.5-0.5-0.9-0.5-1.4L211.8,233.9z"/>
	<path d="M248.8,260.7c-0.7,0.3-1.3,0.5-1.8,0.5h-9c-0.6,0-0.8-0.2-0.8-0.6c-0.3,0.1-0.5,0.3-0.7,0.4c-0.2,0.1-0.4,0.2-0.5,0.2
		c-0.1,0-0.3-0.1-0.5-0.3c-0.2-0.2-0.2-0.3-0.2-0.5v-0.2c0.2-1.5,0.4-3.1,0.5-4.7s0.3-3.2,0.5-4.8c0.1-1.2,0.3-2.4,0.5-3.6
		c0.2-1.2,0.3-2.5,0.5-3.7c0.1-1.4,0.3-2.7,0.4-4c0.1-1.3,0.3-2.7,0.4-4.3l0.1-0.7c0.1-0.3,0.1-0.7,0.2-1.1c0.1-0.4,0.1-0.7,0.2-1.1
		c0.1-1.1,0.2-2.2,0.3-3.4c0.1-1.1,0.2-2.3,0.3-3.5c0.1-0.8,0.2-1.5,0.3-2.3c0.1-0.7,0.2-1.5,0.3-2.3c0.3-2.2,0.5-4.5,0.7-6.9
		c0.2-2.4,0.5-4.7,0.7-6.9l0.5-3.6c0.1-1.3,0.2-2.6,0.3-3.7c0.1-1.2,0.2-2.4,0.3-3.8c0.1-0.3,0.1-0.6,0.2-0.8c0-0.3,0.1-0.6,0.2-0.8
		c0.1-0.3,0.1-0.7,0.1-0.9c0-0.3,0-0.6,0.1-0.9l0.1-1.2c0-0.1,0-0.1-0.1-0.2c0,0-0.1-0.1-0.1-0.2c0.1-0.2,0.2-0.4,0.3-0.6
		c0.1-0.2,0.2-0.4,0.3-0.5c0.1-0.6,0.1-1.3,0.1-1.9c0-0.7,0-1.3,0.1-1.9c0.1-0.4,0.2-0.8,0.2-1c0.1-0.1,0.1-0.4,0.1-0.7
		c0-0.3-0.1-0.5-0.1-0.7c0-0.3,0.2-0.5,0.6-0.6c0.4-0.1,0.9-0.2,1.4-0.3c0.5-0.1,1.1-0.1,1.7-0.2c0.6,0,1.1-0.1,1.4-0.1
		c0.6,0,1.3,0,1.9,0.1c0.7,0,1.3,0.1,1.9,0.1c0.8,0,1.5,0,2.2-0.1c0.7-0.1,1.4-0.1,2.2-0.1c1.3,0.1,2.7,0.2,4.2,0.3
		c1.5,0.1,2.9,0.4,4.3,0.7c1.4,0.3,2.7,0.8,4,1.3c1.3,0.6,2.3,1.4,3.2,2.4c0.8,1,1.7,2,2.6,3c0.9,1,1.6,2.2,2.3,3.4
		c0.7,1.2,1.2,2.4,1.6,3.8c0.4,1.3,0.6,2.7,0.5,4.2c-0.1,0.8-0.1,1.7,0.1,2.5c0.1,0.8,0.1,1.7-0.1,2.6c0,0.4-0.1,0.7-0.3,1.2
		l-0.9,2.9c-0.4,1.3-0.8,2.5-1.3,3.7c-0.5,1.2-1.2,2.3-2.1,3.5l-0.6,1c-0.3,0.6-0.8,1.2-1.4,1.8c-0.7,0.7-1.4,1.3-2.1,2
		c-0.7,0.7-1.4,1.3-2,1.8c-0.6,0.5-1,0.9-1.2,1c0.1,0.1,0.1,0.3,0.1,0.6c0.8,4.4,1.8,8.5,3,12.3c1.2,3.8,2.1,7.7,2.7,11.8
		c0.1,0.4,0.2,1,0.5,1.7c0.2,0.7,0.4,1.2,0.4,1.3c-0.1,0.1-0.2,0.2-0.2,0.3c0,0.3,0.1,0.8,0.3,1.5c0.2,0.7,0.4,1.3,0.5,1.7l0.3,1
		c0.1,0.4,0.3,0.9,0.5,1.4c0.2,0.5,0.3,0.9,0.2,1.1c0,0.4-0.4,0.6-1.3,0.7c-0.9,0.1-1.9,0.2-3,0.3c-1.2,0-2.4,0.1-3.7,0.1
		c-1.3,0-2.4,0-3.2,0c-0.6,0-1.1,0-1.6-0.1c-0.5-0.1-0.8-0.4-0.9-1c-0.1-0.8-0.4-1.7-0.6-2.5c-0.3-0.8-0.5-1.7-0.6-2.7
		c-1.1-3.8-2.1-7.8-2.9-11.8c-0.8-4-1.9-7.8-3.2-11.5c-0.5-1.2-0.9-2.4-1.2-3.5c-0.3-1.2-0.6-2.4-0.8-3.7c-0.1-0.1-0.1-0.3-0.2-0.4
		c0-0.1-0.1-0.2-0.3-0.4c-0.2,0.3-0.3,0.5-0.4,0.8c0,0.2-0.1,0.5-0.2,0.8c0,0.6,0,1.1-0.1,1.7c-0.1,0.6-0.1,1.1-0.2,1.6L252,230
		c-0.1,1.6-0.3,3.2-0.5,4.7c-0.2,1.5-0.4,3.1-0.6,4.7l-0.4,4.2c-0.4,2.9-0.7,5.8-1,8.5C249.2,254.9,249,257.7,248.8,260.7z
		 M255.8,196.5c-0.1,0.4-0.2,0.8-0.3,1.4l-0.9,7.4c-0.1,1-0.2,1.9-0.2,2.8c0,0.9,0,1.8-0.2,2.7l-0.3,1.6c-0.1,0.7-0.1,1.4-0.2,2
		c0,0.6,0.3,0.9,1.1,0.9c1.3,0,2.6-0.2,3.9-0.6s2.6-1,3.7-1.8c1.1-0.8,2.1-1.8,2.8-3c0.8-1.2,1.3-2.5,1.5-4.1c0.1-1,0.1-1.9-0.1-2.8
		c-0.2-0.9-0.2-1.7-0.1-2.5c0-0.3,0.1-0.5,0.2-0.7l-0.8,0.4c-0.3-0.4-0.5-0.8-0.8-1.1c-0.2-0.3-0.5-0.6-0.8-1l-0.6-0.6
		c-1-0.4-2-0.7-3-0.9c-1-0.2-2.1-0.3-3-0.3c-0.3,0-0.7,0-0.9,0.1C256.4,196.3,256.1,196.4,255.8,196.5z"/>
	<path d="M312.7,196.9c-0.2,0.4-0.5,0.5-0.8,0.5h-8.5c-0.4,0-0.7,0.2-0.9,0.6c-0.2,0.4-0.4,0.9-0.5,1.4c-0.1,0.6-0.2,1.2-0.3,1.8
		c-0.1,0.6-0.1,1.2-0.2,1.7l-0.2,1.9c-0.1,0.3-0.2,0.5-0.2,0.7c-0.1,1-0.2,2.1-0.3,3.1c-0.1,1-0.2,2.1-0.3,3
		c-0.1,0.4-0.1,0.8-0.2,1.3c-0.1,0.4-0.1,0.8-0.2,1.3c-0.1,0.4,0.1,0.6,0.6,0.6h3.1h2.4c0.8,0,1.6,0,2.5-0.1
		c0.9-0.1,1.7-0.1,2.6-0.1h1c0.8,0.1,1.1,0.6,1,1.4c-0.1,0.4-0.2,0.8-0.3,1.2c0,0.4-0.1,0.8-0.2,1.2l-1.4,9.8
		c-0.5,0.1-0.9,0.3-1.3,0.4c-0.4,0.1-0.8,0.2-1.2,0.2c-0.3,0-0.5,0-0.7-0.1c-0.2,0-0.5-0.1-0.7-0.1c-1.4,0-2.8,0-4.2,0.1
		c-1.4,0.1-2.8,0.2-4.2,0.3h-0.3c-0.3,0-0.7,0.6-1,1.7c-0.3,1.1-0.6,2.5-0.8,4c-0.2,1.6-0.4,3.2-0.6,5c-0.2,1.8-0.4,3.3-0.5,4.7
		l-0.2,1.5c0,0.1,0,0.2-0.1,0.3c0,0.5,0.2,0.7,0.6,0.7c0.6,0,1.1,0,1.7,0c0.6,0,1.2,0,1.8-0.1c0.6,0,1.1,0,1.7,0.1
		c0.6,0,1.2,0.1,1.8,0.1c0.3,0,0.7,0,0.9-0.1c0.3,0,0.6-0.1,0.9-0.1l6.9-0.3c0.6,0,0.9,0.3,0.8,0.9c0,0.1-0.1,0.4-0.2,0.6l-3.5,11.9
		c-0.1,0.4-0.4,0.6-0.8,0.7c-0.4,0.1-0.8,0.2-1.2,0.2c-0.9,0-1.8,0-2.7-0.1c-0.9,0-1.8-0.1-2.7-0.1c-2.9,0-5.7,0.1-8.5,0.3
		c-2.8,0.2-5.6,0.3-8.4,0.3c-1-0.1-1.9-0.2-2.6-0.3c-0.8,0-1.1-0.5-0.9-1.5c0.3-3.3,0.7-6.4,1.2-9.3c0.5-2.9,0.9-5.9,1.3-9l2.3-17
		c0.1-0.5,0.2-0.9,0.3-1.4c0.1-0.4,0.1-0.9,0.2-1.4c0.1-0.2,0.1-0.4,0.1-0.6s0-0.4,0.1-0.6c0.3-2.2,0.6-4.5,0.9-6.7
		c0.3-2.2,0.6-4.4,0.9-6.7l0.9-7.5c0.3-2.3,0.7-4.6,0.9-7c0.3-2.3,0.6-4.7,1-7v-0.6c0.1-0.5,0.2-0.7,0.5-0.7c0.3,0,0.6-0.1,0.9-0.3
		c3.2,0,6.4-0.1,9.6-0.2c3.2-0.1,6.4-0.2,9.6-0.2c0.6,0,1.3,0,1.9,0.1c0.6,0,1.3,0.1,1.9,0.1c0.3,0,0.7,0,0.9-0.1
		c0.3,0,0.6-0.1,0.9-0.1h0.7c0.3,0.1,0.5,0.6,0.7,1.7c0.2,1.1,0.4,2.3,0.5,3.6c0.1,1.4,0.2,2.7,0.2,4.1s0,2.5-0.1,3.3
		c-0.1,0.4-0.4,0.7-0.9,0.8c-0.6,0.1-1.2,0.2-1.9,0.3c-0.7,0-1.4,0-2,0c-0.7,0-1.1-0.1-1.4-0.1c-0.2,0-0.4-0.1-0.6-0.2
		C313,197.1,312.9,197,312.7,196.9z"/>
	<path d="M358.2,250.1l-0.8,0.4c-0.1,0-0.1-0.3-0.1-0.9c0-0.6,0.1-1.3,0.2-2.1c0.1-0.8,0.1-1.6,0.2-2.4c0.1-0.8,0.1-1.3,0.2-1.7
		c0-0.2,0-0.4,0.1-0.6c0-0.2,0.1-0.4,0.1-0.6c0.1-0.9,0.2-1.8,0.2-2.6s0.1-1.7,0.2-2.5l0.6-4.5c0.3-2.4,0.5-4.9,0.6-7.3
		c0.1-2.4,0.3-4.8,0.6-7.2l-0.8-0.6v-0.3c0.1-0.1,0.1-0.2,0.1-0.4c0.1-0.6,0-1.3-0.4-1.9c-0.4-0.7-0.6-1.3-0.5-1.8
		c0-0.6-0.1-1.3-0.3-2.1l-2.1-5.8c-1-2.8-1.9-5.6-2.8-8.3c-0.9-2.8-1.9-5.5-2.8-8.2l-2.3-6.3c0.3-0.3,0.6-0.5,0.9-0.5
		c0.8,0,1.7,0,2.5,0.1c0.8,0,1.6,0.1,2.5,0.1c1,0,2.1,0,3.2,0c1.1,0,2.1,0,3.2-0.1c0.6,0,0.9,0.1,1.1,0.2c0.2,0.1,0.4,0.5,0.6,0.9
		l3.2,9.6c0.1,0.5,0.3,1.2,0.6,2c0.3,0.9,0.6,1.7,0.9,2.6c0.3,0.9,0.6,1.6,0.8,2.3c0.2,0.7,0.4,1,0.6,1c0.1,0,0.2-0.1,0.3-0.2
		c0.1-0.1,0.2-0.2,0.3-0.4l8-14.9l1.3-2.4c0.4-0.6,0.9-0.9,1.6-0.9c0.8,0.1,1.7,0.1,2.5,0.1s1.7,0,2.5,0c1,0,2,0,3-0.1
		c1,0,2-0.1,3.1-0.1c0.1,0,0.3,0,0.5,0.1c0.2,0,0.3,0.2,0.2,0.5c0,0.3,0,0.5-0.1,0.5c-1.1,2-2.2,3.9-3.2,5.9c-1,2-2.1,4-3.1,6
		l-9.4,17.8c-0.3,0.6-0.6,1.2-1,1.8c-0.4,0.7-0.6,1.2-0.7,1.7c0,0.3,0,0.5,0.1,0.6l0.1,0.7l-1.4,0.4l-0.2,0.4
		c-0.3,2.2-0.5,4.3-0.6,6.3c-0.1,2-0.3,4.1-0.6,6.2c-0.1,0.5-0.1,0.9-0.1,1.4s0,0.9-0.2,1.4c0,0.4-0.1,0.7-0.2,1
		c-0.1,0.4-0.2,0.7-0.3,1v2c0,0.4,0,0.8-0.1,1.2c0,0.4-0.1,0.8-0.2,1.1l-0.3,2.5c-0.3,2.9-0.6,5.7-0.8,8.6c-0.2,2.9-0.5,5.7-0.8,8.5
		c-0.1,0.4-0.3,0.6-0.6,0.7c-0.3,0.1-0.8,0.2-1.4,0.2c-0.4,0-0.8-0.1-1-0.4h-0.2c-0.3,0.3-0.6,0.4-1,0.4c-0.2,0-0.4,0-0.6-0.1
		c-0.2,0-0.4-0.1-0.6-0.1c-0.6,0.1-1.1,0.1-1.7,0.2c-0.6,0-1.1,0.1-1.7,0.1c-1.3,0-2.1-0.1-2.7-0.2c-0.5-0.1-0.9-0.4-1-0.8
		c-0.1-0.5-0.1-1.1,0-1.9c0.1-0.8,0.3-2,0.5-3.5c0.1-0.3,0.2-0.8,0.3-1.3c0.1-0.5,0.4-0.9,0.8-1L358.2,250.1z"/>
	<path d="M452,224.4c-0.4-0.3-0.5-0.6-0.5-1c0-0.4-0.1-0.7-0.4-0.9c-0.3,0-0.4,0.1-0.4,0.3c-0.1,0.8,0,1.6,0.3,2.4
		c0.3,0.8,0.5,1.5,0.4,2.1c-0.4,2.2-1.1,4.5-2,6.8c-0.9,2.3-1.9,4.3-2.9,6.1l-2.1,4.1c-0.3,0.6-0.8,1.4-1.5,2.3
		c-0.7,0.9-1.3,1.7-1.7,2.3h-0.5c-0.4,0-0.5,0.1-0.5,0.3c0,0.1,0,0.2,0.1,0.3c0.1,0.1,0.1,0.3,0.2,0.5c-1.3,1.2-2.5,2.5-3.7,3.9
		c-1.2,1.4-2.6,2.7-4.1,3.9c-1.5,1.2-3.4,2.2-5.5,3c-2.2,0.8-4.8,1.3-8,1.3c-0.5,0-0.8-0.2-0.9-0.6c-0.3,0.3-0.7,0.5-1.1,0.6
		c-0.4,0-0.8,0.1-1.3,0.1h-0.8H413c-2.3,0-4.6-0.5-7-1.6c-2.3-1-4.5-2.5-6.4-4.5c-2-2-3.6-4.3-5.1-7.1c-1.4-2.8-2.4-6-3-9.5
		c-0.7-2.5-1.1-5-1.3-7.5c-0.1-2.5-0.2-5.3-0.3-8.3v-0.7c0.1-0.3,0.1-0.5,0.2-0.7c0.1-0.2,0.2-0.5,0.5-0.7c-0.3-0.3-0.4-0.6-0.4-1
		c0-0.4,0-0.8,0.1-1.2c0.5-4.3,1.5-8.3,3.1-12.2c1.6-3.9,3.5-7.3,5.7-10.4c2.2-3.1,4.6-5.7,7.2-7.9c2.6-2.2,5.2-3.8,7.8-4.9
		c1.8-0.8,3.6-1.3,5.5-1.5c1.8-0.2,3.7-0.4,5.6-0.4c0.8,0,1.5,0,2.3,0.1c0.8,0,1.5,0.1,2.3,0.2c0.2-0.1,0.6-0.1,1-0.1
		c2.7,0,5,0.5,7.1,1.5c2.1,1,3.9,2.3,5.4,3.9c1.6,1.6,2.9,3.4,4,5.4c1.1,2,2.1,4.1,2.8,6.1c0.8,2,1.4,4,1.8,5.8
		c0.5,1.9,0.8,3.4,1,4.7l-0.1,0.3c0.1,2,0.1,4.1-0.1,6.1c-0.1,2-0.2,4-0.3,6.1c-0.1,0.5-0.2,0.9-0.3,1.4
		C452.3,223.5,452.1,223.9,452,224.4z M419.6,196.7c-1.2,0.5-2.2,0.9-3.1,1.4c-0.9,0.4-1.7,0.9-2.5,1.4c-0.8,0.5-1.5,1.1-2.2,1.8
		c-0.7,0.7-1.4,1.5-2.1,2.5c-1.7,2.4-3.2,5-4.4,7.6c-1.2,2.7-2,5.4-2.3,8.4c-0.6,5-0.1,9.6,1.3,13.8c1.4,4.2,3.3,7.9,5.7,11.2
		c0.3,0.4,0.6,0.8,0.9,1.3c0.3,0.4,0.7,0.6,1.3,0.6h0.3c0.3,0,0.7,0.2,1,0.5c0.3,0.3,0.7,0.5,1.3,0.5c0.1,0,0.3,0,0.4-0.1
		c0.1,0,0.2-0.1,0.3-0.1c0.3,0,0.5,0,0.7,0.1c0.2,0.1,0.5,0.1,0.8,0.1c0.1,0,0.2,0,0.3-0.1c0.1,0,0.1-0.1,0.2-0.1
		c0.1,0,0.2,0.1,0.2,0.3c1.6,0,3.2-0.4,4.9-1.2c1.7-0.8,3.2-1.8,4.7-2.9s2.8-2.4,3.9-3.6c1.1-1.3,2-2.3,2.5-3.1
		c0.8-1.3,1.5-2.6,2.3-4.1c0.8-1.5,1.4-3,2-4.6c0.6-1.5,1.1-3,1.5-4.5s0.7-2.8,0.8-3.9c0.2-1.8,0.2-3.9,0-6.2
		c-0.2-2.3-0.7-4.6-1.4-6.9c-0.7-2.2-1.8-4.2-3.1-6c-1.4-1.7-3-2.9-5-3.6c-0.3-0.1-0.6-0.3-0.6-0.4c-0.1-0.1-0.2-0.4-0.5-1
		c-0.3,0.5-0.7,0.7-1.3,0.7c-0.7,0-1.4-0.1-2.1-0.2c-0.7-0.1-1.3-0.2-1.8-0.2c-0.2,0-0.4,0-0.6,0.1c-0.2,0-0.4,0.1-0.6,0.1
		c-0.6,0-0.9,0-1.2-0.1c-0.5,0.3-0.9,0.4-1.3,0.4C420.3,196.9,419.9,196.8,419.6,196.7z"/>
	<path d="M464.7,184.2c0.3-0.3,0.7-0.4,1.2-0.4c0.3,0,0.5,0,0.7,0.1c0.2,0.1,0.4,0.1,0.7,0.1c0.3-0.1,0.7-0.1,0.9-0.2
		c0.3,0,0.6-0.1,0.8-0.1c0.3,0,0.8,0.1,1.4,0.2c0.2,0,0.4,0,0.7-0.1c0.2-0.1,0.5-0.1,0.7-0.1c0.1,0,0.2,0,0.3,0.1
		c0.1,0,0.2,0.1,0.3,0.1c0.2,0,0.4,0,0.6-0.1c0.2,0,0.4-0.1,0.6-0.2c0.3,0,0.7,0,0.9,0.1c0.3,0,0.6,0.1,0.9,0.1c0.4,0,0.7,0,0.9-0.1
		c0.6,0,0.8,0.4,0.8,1l-0.2,1.6c-0.2,1-0.4,2.1-0.4,3.1c-0.1,1-0.2,2.1-0.3,3.1l-0.4,3.4c0.1,0.5,0.1,1,0.1,1.4
		c0,0.5-0.1,0.9-0.2,1.4c-0.1,0.4-0.1,0.9-0.2,1.3c0,0.5-0.1,0.9-0.2,1.3c-0.1,0.5-0.1,1-0.1,1.4c0,0.5,0,1-0.2,1.6
		c0,0.3-0.1,0.6-0.2,0.9c-0.1,0.4-0.2,0.7-0.3,0.9c0.1,0.8,0.1,1.5-0.1,2.2c-0.1,0.7-0.2,1.4-0.2,2.2l-0.1,0.9
		c-0.1,0.3-0.2,0.6-0.2,0.8c0,0.3,0,0.6-0.1,0.8c-0.1,1-0.2,2-0.3,3c-0.1,1-0.2,2.1-0.3,3l-0.7,6.3c-0.1,0.5-0.2,0.9-0.3,1.4
		c0,0.4-0.1,0.9-0.2,1.4c0,0.2,0,0.4-0.1,0.7c0,0.2-0.1,0.5-0.1,0.7c-0.1,0.7-0.2,1.2-0.2,1.6c-0.1,0.3-0.1,0.5-0.2,0.8
		c0,0.2-0.1,0.5-0.3,0.7c0,0.3,0,0.5,0,0.7s0,0.5-0.1,0.8c0,0.4,0,0.6-0.1,0.9c-0.1,0.2-0.1,0.5-0.2,0.9c-0.2,1.5-0.2,3,0,4.5
		c0.2,1.5,0.6,2.8,1.3,4c0.6,1.2,1.5,2.1,2.5,2.9s2.3,1.1,3.9,1.1c3.3,0,5.7-1.2,7.1-3.5c1.5-2.3,2.4-5.3,2.8-9
		c0.3-2.7,0.6-5.3,0.8-8c0.2-2.7,0.4-5.4,0.8-8.1c0.1-0.3,0.1-0.5,0.1-0.7s0.1-0.4,0.2-0.6c0.3-3.3,0.7-6.5,0.9-9.8
		c0.3-3.2,0.6-6.5,1-9.9l0.3-2.9c0.1-0.9,0.2-1.8,0.3-2.7c0.1-0.9,0.2-1.8,0.3-2.7l0.5-5.9c0.1-0.4,0.2-0.7,0.5-0.8
		c0.2-0.1,0.5-0.2,0.8-0.2c0.2,0,0.4,0.1,0.6,0.2c0.2,0.1,0.4,0.2,0.6,0.2c0.3,0,0.7,0,1-0.1c0.3-0.1,0.7-0.1,1-0.1
		c0.2,0,0.4,0,0.6,0.1c0.2,0.1,0.4,0.1,0.6,0.1c0.1,0,0.3,0,0.6-0.1c0.2-0.1,0.5-0.1,0.7-0.1c0.3,0,0.7,0,0.9,0.1
		c0.3,0,0.6,0.1,0.9,0.1c0.4,0,0.8,0,1.3-0.1c0.4,0,0.8-0.1,1.3-0.2c0.7,0,1,0.3,1,0.8l-0.1,0.7c-0.4,2.9-0.7,5.8-1,9
		c-0.4,3.1-0.6,5.9-0.6,8.3l-0.1,0.8v0.9c-0.1,0.3-0.2,0.6-0.3,0.8c-0.1,0.3-0.2,0.6-0.2,0.8c-0.1,1.1-0.2,2.3-0.3,3.4
		c-0.1,1.2-0.2,2.3-0.3,3.5c-0.1,0.6-0.2,1.1-0.3,1.7c0,0.6-0.1,1.1-0.2,1.7c-0.1,0.8-0.2,1.5-0.3,2.3c0,0.8-0.1,1.5-0.3,2.3
		l-0.3,2.8l-0.2,3.7c-0.1,0.4-0.1,0.8-0.2,1.2c-0.1,0.4-0.1,0.8-0.2,1.3c-0.1,0.4-0.1,0.9-0.1,1.6c0,0.1,0,0.2-0.1,0.3
		c-0.1,0.1-0.1,0.2-0.1,0.3c0.2,0.6,0.2,1.4,0.1,2.2c0,0.3,0,0.5-0.1,0.8c0,0.2-0.1,0.5-0.1,0.8l-0.5,3.8c-0.1,1.3-0.4,2.5-0.8,3.7
		c-0.4,1.2-0.9,2.4-1.4,3.6l-1.2,2.5c-1.6,3.1-3.6,5.4-5.9,7.1c-2.3,1.6-4.5,2.9-6.7,3.7c-2.2,0.8-4,1.3-5.6,1.5
		c-1.5,0.2-2.4,0.3-2.5,0.3c-0.6,0-1.3-0.1-2-0.3c-0.7-0.2-1.3-0.3-1.9-0.5l-4-1l-0.1-1.9c-0.3,0.1-0.5,0.2-0.7,0.4
		c-0.2,0.2-0.4,0.4-0.7,0.6c-0.5-0.5-1-0.9-1.6-1.2c-0.6-0.3-1.1-0.7-1.4-1.3l-0.5-0.5c-1.4-1.2-2.4-2.6-3-4.1
		c-0.6-1.6-1-3.3-1.1-5.3l-0.2-2.4c-0.1-0.6-0.2-1.3-0.3-1.9c-0.1-0.6-0.1-1.3,0-1.9l-0.2-1.6c-0.1-0.6-0.2-1.3-0.1-2.1
		c0.1-0.8,0.2-1.7,0.3-2.5c0.1-0.1,0.1-0.3,0.1-0.6c0.1-0.5,0.1-1,0.1-1.5c0-0.5,0-1,0.2-1.6c0-0.3,0-0.5,0.1-0.7
		c0-0.2,0.1-0.5,0.2-0.7c0.1-1.3,0.3-2.7,0.5-4c0.2-1.3,0.3-2.7,0.4-4.1l0.2-1.9c0.1-1.4,0.3-2.8,0.4-4.2c0.1-1.4,0.3-2.8,0.4-4.2
		l0.5-1.9c-0.1-0.1-0.2-0.3-0.2-0.4c0-0.1,0-0.3,0-0.5l0.9-8.8c0.1-0.5,0.1-1,0.2-1.4c0.1-0.5,0.1-1,0.2-1.5
		c0.1-0.3,0.1-0.5,0.1-0.8c0-0.2,0-0.5,0.1-0.8l0.2-1.7c0-1.3,0.1-2.7,0.3-4.1l0.3-2.7c0-0.1,0-0.2-0.1-0.3c0-0.1,0-0.2,0.1-0.3
		c0-0.2,0-0.4,0.1-0.7C464.6,184.6,464.7,184.4,464.7,184.2z"/>
	<path d="M523.2,260.7c-0.7,0.3-1.3,0.5-1.8,0.5h-9c-0.6,0-0.8-0.2-0.8-0.6c-0.3,0.1-0.5,0.3-0.7,0.4c-0.2,0.1-0.4,0.2-0.5,0.2
		c-0.1,0-0.3-0.1-0.5-0.3c-0.2-0.2-0.2-0.3-0.2-0.5v-0.2c0.2-1.5,0.4-3.1,0.5-4.7s0.3-3.2,0.5-4.8c0.1-1.2,0.3-2.4,0.5-3.6
		c0.2-1.2,0.3-2.5,0.5-3.7c0.1-1.4,0.3-2.7,0.4-4c0.1-1.3,0.3-2.7,0.4-4.3l0.1-0.7c0.1-0.3,0.1-0.7,0.2-1.1c0.1-0.4,0.1-0.7,0.2-1.1
		c0.1-1.1,0.2-2.2,0.3-3.4c0.1-1.1,0.2-2.3,0.3-3.5c0.1-0.8,0.2-1.5,0.3-2.3c0.1-0.7,0.2-1.5,0.3-2.3c0.3-2.2,0.5-4.5,0.7-6.9
		c0.2-2.4,0.5-4.7,0.7-6.9l0.5-3.6c0.1-1.3,0.2-2.6,0.3-3.7c0.1-1.2,0.2-2.4,0.3-3.8c0.1-0.3,0.1-0.6,0.2-0.8c0-0.3,0.1-0.6,0.2-0.8
		c0.1-0.3,0.1-0.7,0.1-0.9c0-0.3,0-0.6,0.1-0.9l0.1-1.2c0-0.1,0-0.1-0.1-0.2c0,0-0.1-0.1-0.1-0.2c0.1-0.2,0.2-0.4,0.3-0.6
		c0.1-0.2,0.2-0.4,0.3-0.5c0.1-0.6,0.1-1.3,0.1-1.9c0-0.7,0-1.3,0.1-1.9c0.1-0.4,0.2-0.8,0.2-1c0.1-0.1,0.1-0.4,0.1-0.7
		c0-0.3-0.1-0.5-0.1-0.7c0-0.3,0.2-0.5,0.6-0.6c0.4-0.1,0.9-0.2,1.4-0.3c0.5-0.1,1.1-0.1,1.7-0.2c0.6,0,1.1-0.1,1.4-0.1
		c0.6,0,1.3,0,1.9,0.1c0.7,0,1.3,0.1,1.9,0.1c0.8,0,1.5,0,2.2-0.1c0.7-0.1,1.4-0.1,2.2-0.1c1.3,0.1,2.7,0.2,4.2,0.3
		c1.5,0.1,2.9,0.4,4.3,0.7c1.4,0.3,2.7,0.8,4,1.3c1.3,0.6,2.3,1.4,3.2,2.4c0.8,1,1.7,2,2.6,3c0.9,1,1.6,2.2,2.3,3.4
		c0.7,1.2,1.2,2.4,1.6,3.8c0.4,1.3,0.6,2.7,0.5,4.2c-0.1,0.8-0.1,1.7,0.1,2.5c0.1,0.8,0.1,1.7-0.1,2.6c0,0.4-0.1,0.7-0.3,1.2
		l-0.9,2.9c-0.4,1.3-0.8,2.5-1.3,3.7c-0.5,1.2-1.2,2.3-2.1,3.5l-0.6,1c-0.3,0.6-0.8,1.2-1.4,1.8c-0.7,0.7-1.4,1.3-2.1,2
		c-0.7,0.7-1.4,1.3-2,1.8c-0.6,0.5-1,0.9-1.2,1c0.1,0.1,0.1,0.3,0.1,0.6c0.8,4.4,1.8,8.5,3,12.3c1.2,3.8,2.1,7.7,2.7,11.8
		c0.1,0.4,0.2,1,0.5,1.7c0.2,0.7,0.4,1.2,0.4,1.3c-0.1,0.1-0.2,0.2-0.2,0.3c0,0.3,0.1,0.8,0.3,1.5c0.2,0.7,0.4,1.3,0.5,1.7l0.3,1
		c0.1,0.4,0.3,0.9,0.5,1.4c0.2,0.5,0.3,0.9,0.2,1.1c0,0.4-0.4,0.6-1.3,0.7c-0.9,0.1-1.9,0.2-3,0.3c-1.2,0-2.4,0.1-3.7,0.1
		c-1.3,0-2.4,0-3.2,0c-0.6,0-1.1,0-1.6-0.1c-0.5-0.1-0.8-0.4-0.9-1c-0.1-0.8-0.4-1.7-0.6-2.5c-0.3-0.8-0.5-1.7-0.6-2.7
		c-1.1-3.8-2.1-7.8-2.9-11.8c-0.8-4-1.9-7.8-3.2-11.5c-0.5-1.2-0.9-2.4-1.2-3.5c-0.3-1.2-0.6-2.4-0.8-3.7c-0.1-0.1-0.1-0.3-0.2-0.4
		c0-0.1-0.1-0.2-0.3-0.4c-0.2,0.3-0.3,0.5-0.4,0.8c0,0.2-0.1,0.5-0.2,0.8c0,0.6,0,1.1-0.1,1.7c-0.1,0.6-0.1,1.1-0.2,1.6l-0.2,1.6
		c-0.1,1.6-0.3,3.2-0.5,4.7c-0.2,1.5-0.4,3.1-0.6,4.7l-0.4,4.2c-0.4,2.9-0.7,5.8-1,8.5C523.6,254.9,523.4,257.7,523.2,260.7z
		 M530.1,196.5c-0.1,0.4-0.2,0.8-0.3,1.4l-0.9,7.4c-0.1,1-0.2,1.9-0.2,2.8c0,0.9,0,1.8-0.2,2.7l-0.3,1.6c-0.1,0.7-0.1,1.4-0.2,2
		c0,0.6,0.3,0.9,1.1,0.9c1.3,0,2.6-0.2,3.9-0.6s2.6-1,3.7-1.8c1.1-0.8,2.1-1.8,2.8-3c0.8-1.2,1.3-2.5,1.5-4.1c0.1-1,0.1-1.9-0.1-2.8
		c-0.2-0.9-0.2-1.7-0.1-2.5c0-0.3,0.1-0.5,0.2-0.7l-0.8,0.4c-0.3-0.4-0.5-0.8-0.8-1.1c-0.2-0.3-0.5-0.6-0.8-1l-0.6-0.6
		c-1-0.4-2-0.7-3-0.9c-1-0.2-2.1-0.3-3-0.3c-0.3,0-0.7,0-0.9,0.1C530.8,196.3,530.5,196.4,530.1,196.5z"/>
	<g>
		<path d="M249.5,292.7c0.1,0.1,0.1,0.2,0.1,0.3c0,0.1-0.1,0.1-0.1,0.2c0,0.2,0,0.4-0.1,0.6c-0.1,0.2-0.1,0.4-0.1,0.5
			c-0.1,0.5-0.1,0.9-0.1,1.3c0,0.4,0,0.8-0.1,1.2c0,0.1,0,0.3-0.1,0.5c-0.1,0.2-0.1,0.3-0.2,0.5l-0.1,0.3c0.1,0.2,0.1,0.4,0.2,0.6
			c0,0.2,0,0.4-0.1,0.6c-0.1,0.3-0.1,0.6-0.2,0.8c0,0.3-0.1,0.6-0.2,0.9v0.3l-0.1,0.3v0.2c-0.1,0.3-0.2,0.6-0.3,0.8
			c-0.1,0.2-0.2,0.4-0.3,0.8c0,0.1,0,0.3,0.1,0.4c0,0.1,0,0.3-0.1,0.4c0,0.1-0.1,0.2-0.2,0.5l-0.4-0.3c-0.8-0.8-1.6-1.4-2.4-1.9
			c-0.8-0.5-1.7-1-2.7-1.5c-0.8-0.3-1.5-0.6-2-0.7c-0.6-0.1-1.3-0.2-2-0.2h-2.1c-2,0-3.9,0.7-5.7,2c-1.7,1.4-2.8,3.4-3.1,6.1
			c-0.2,1.9,0.1,3.7,0.9,5.4c0.8,1.7,1.8,3.4,3,5.1c1.2,1.6,2.5,3.2,3.9,4.8s2.5,3.1,3.4,4.6c0.6,0.9,1.1,1.8,1.5,2.7
			c0.5,0.9,0.9,1.8,1.2,2.8l1.2,3.5c0.8,2.5,1,5.2,0.6,8c-0.2,1.6-0.5,3.2-1,4.9c-0.5,1.7-1.1,3.3-2,4.9l-0.5,0.9
			c-0.6,1.1-1.3,2-1.9,2.8c-0.6,0.7-1.3,1.4-1.9,2c-0.6,0.6-1.3,1.2-2,1.7c-0.7,0.5-1.4,1.1-2.2,1.8c-0.1,0.1-0.3,0.2-0.6,0.4
			c-0.3,0.2-0.5,0.3-0.7,0.3c-0.2,0-0.5-0.1-0.7-0.4L229,365c-1.2,1-2.7,1.7-4.5,2c-1.8,0.3-3.3,0.4-4.7,0.4c-0.7,0-1.3-0.1-1.9-0.2
			c-0.6-0.1-1.2-0.2-1.9-0.4l-1.5-0.3c-0.8-0.1-1.6-0.4-2.4-0.7c-0.8-0.3-1.5-0.7-2.2-1.1c-0.7-0.4-1.2-0.9-1.6-1.4
			c-0.4-0.5-0.5-1-0.5-1.7c0-0.2,0.1-0.5,0.2-0.9l0.5-1.5c-0.2-0.3-0.3-0.7-0.3-1.2c0-0.4,0-0.8-0.2-1.2c0.1-0.3,0.2-0.6,0.3-0.9
			c0.1-0.3,0.2-0.6,0.3-1c0-0.3,0-0.6,0.1-0.9c0-0.2,0.1-0.5,0.2-0.9c0-0.3,0-0.6,0.1-0.9c0-0.2,0.1-0.5,0.2-0.9
			c0.1-0.5,0.1-1,0-1.4c-0.1-0.5-0.1-0.9,0-1.4c0.1-0.6,0.4-1.2,0.9-1.8l0.4,0.3c0.6,0.8,1.4,1.5,2.4,2.1c1,0.6,2,1.2,3,1.6
			c1,0.5,2.1,0.8,3.1,1.1c1,0.3,1.9,0.4,2.6,0.4c0.7,0,1.5-0.1,2.3-0.3c0.8-0.2,1.6-0.6,2.4-1.2c0.7-0.6,1.4-1.3,1.9-2.3
			c0.6-1,0.9-2.2,1.2-3.7c0.2-1.7-0.1-3.4-0.8-5.1c-0.7-1.6-1.6-3.1-2.7-4.5c-1-1.4-2.1-2.6-3.2-3.7c-1.1-1.1-1.9-2-2.4-2.7
			c-2.2-2.2-3.6-4.3-4.5-6.3c-0.8-2-1.3-3.7-1.6-5.1c0.1-0.5,0-1.2-0.4-2.2c-0.4-1-0.6-1.8-0.6-2.6c-0.1-1-0.1-2-0.1-3
			c0-1,0.1-2.1,0.2-3c0.1-0.6,0.3-1.3,0.4-1.9c0.1-0.6,0.3-1.2,0.6-1.8l0.3-0.8c0.5-1.9,1.3-3.6,2.3-5.2c1-1.6,2.3-3.1,3.7-4.4
			c1.4-1.3,2.9-2.5,4.5-3.4c1.6-0.9,3.2-1.6,4.9-2c0.1-0.1,0.4-0.2,0.9-0.4c0.5-0.2,1-0.3,1.3-0.3c0.1,0,0.3,0,0.5,0.1
			c0.2,0.1,0.3,0.1,0.5,0.1c0.5,0,1,0,1.5-0.1c0.5-0.1,1.1-0.1,1.6-0.1c0.9,0,2.1,0,3.6,0.1c1.5,0.1,3,0.2,4.5,0.4
			c1.5,0.2,2.7,0.5,3.8,0.9c1,0.4,1.5,0.9,1.5,1.4c-0.1,0.2-0.1,0.5-0.2,0.7c0,0.3-0.1,0.5-0.2,0.6c0,0.4,0,0.7-0.1,0.9
			C249.4,292,249.4,292.4,249.5,292.7z"/>
		<path d="M286.3,298.5c0.3,0.3,0.6,0.8,0.6,1.4c0.1,0.6,0.1,1.1,0,1.5c-0.1,0.6-0.5,0.9-1,0.9c-0.6,0-1.2,0-1.8-0.1
			c-0.6-0.1-1.2-0.1-1.7-0.1h-0.8c-0.1,0-0.3,0-0.5,0.1c-0.2,0-0.4,0.1-0.5,0.1c-0.6,0-1.3,0-1.9-0.1c-0.7,0-1.3-0.1-1.9-0.1
			c-0.6,0-0.8,0.3-0.8,0.8c-0.1,0.5-0.1,1-0.2,1.5c-0.1,0.5-0.1,1-0.1,1.5c-0.1,0.6-0.2,1-0.2,1.5c-0.1,0.4-0.1,0.7-0.2,1
			c0,0.4-0.1,0.7-0.2,1c-0.2,2-0.5,3.9-0.7,6c-0.3,2-0.6,4-0.8,5.9l0.1,1.2v0.7c-0.3,0.6-0.4,1.2-0.4,2c-0.1,0.5-0.1,1-0.1,1.4
			c0,0.5-0.1,1-0.2,1.5v0.6c0,0.5,0,0.8-0.1,1c-0.1,0.5-0.2,1-0.4,1.4c-0.2,0.5-0.3,0.9-0.4,1.3c-0.1,0.8-0.2,1.6-0.2,2.4
			c0,0.8,0,1.5-0.1,2c-0.1,0.9-0.3,1.9-0.4,2.9c-0.1,1-0.3,2-0.4,3c-0.1,0.6-0.1,1.1-0.2,1.7c-0.1,0.6-0.1,1.2-0.1,1.7
			c-0.1,0.6-0.3,1.3-0.4,1.9c-0.1,0.7-0.2,1.3-0.4,2c-0.1,0.5-0.1,0.9-0.1,1.4s0,0.8-0.1,1.3c-0.1,0.6-0.1,1.1-0.2,1.5
			c0,0.5-0.1,0.9-0.2,1.4c-0.1,1-0.2,2.1-0.3,3c-0.1,1-0.2,2.1-0.3,3.2c-0.1,0.4-0.2,0.7-0.2,0.8c-0.1,0.4-0.1,0.7-0.1,1
			c0,0.4,0,0.7,0,1c-0.1,0.4-0.3,0.7-0.4,0.9c-0.1,0.2-0.4,0.3-0.8,0.4h-0.8c-0.8,0-1.7,0-2.5-0.1c-0.8,0-1.6-0.1-2.4-0.1
			c-0.4,0-0.8,0-1.3,0.1c-0.4,0-0.8,0.1-1.3,0.1c-0.4,0-0.7,0-1,0c-0.3,0-0.7,0-1-0.1c-0.3,0-0.6-0.1-0.7-0.2
			c-0.2-0.1-0.2-0.3-0.2-0.6v-0.3c0-0.3,0-0.7,0.1-1c0-0.3,0.1-0.6,0.1-1l0.7-5.4v-1.2c0.1-0.5,0.1-1,0.2-1.4
			c0.1-0.5,0.2-0.9,0.3-1.4c0.1-0.7,0.2-1.4,0.3-2.1c0-0.7,0.1-1.4,0.2-2.1c0.1-0.3,0.1-0.7,0.2-1c0.1-0.3,0.1-0.7,0.2-1l0.3-2.5
			l0.9-8.8c0.3-2.2,0.6-4.3,0.8-6.4c0.3-2.1,0.6-4.3,0.8-6.4c0.1-1.4,0.3-2.8,0.5-4.1c0.2-1.3,0.3-2.7,0.5-4.1l0.6-5.1
			c0.1-0.7,0.1-1.4,0.2-2c0.1-0.7,0.2-1.4,0.3-2.1c0-0.3,0.1-0.6,0.2-0.9c0.1-0.3,0.2-0.7,0.2-1c0-0.3-0.1-0.6-0.2-0.9
			c-0.1-0.2-0.4-0.4-0.7-0.4h-6.7c-0.3,0-0.5,0-0.6,0.1h-0.5h-1c-0.7-0.1-1-0.5-0.9-1.4c0.1-0.3,0.1-0.5,0.2-0.8
			c0.1-0.2,0.2-0.5,0.3-0.8l2.2-9.5l0.5-1.6c0-0.3,0.2-0.5,0.7-0.5h10.1h6.2h3.1h1.5c0.3,0,0.7,0,1.1,0.1c0.4,0.1,0.8,0.1,1.1,0.1
			c0.1,0,0.2,0,0.3-0.1c0,0,0.1-0.1,0.3-0.1h0.2h0.8c0.8-0.1,1.5-0.1,2.2-0.1c0.7,0,1.4,0,2.1,0c0.8,0.1,1.2,0.5,1.2,1.3l0.1,6.6
			v1.4C286.7,297.8,286.5,298.2,286.3,298.5z"/>
		<path d="M348.7,330.1c-0.4-0.3-0.5-0.6-0.5-1c0-0.4-0.1-0.7-0.4-0.9c-0.3,0-0.4,0.1-0.4,0.3c-0.1,0.8,0,1.6,0.3,2.4
			c0.3,0.8,0.5,1.5,0.4,2.1c-0.4,2.2-1.1,4.5-2,6.8c-0.9,2.3-1.9,4.3-2.9,6.1l-2.1,4.1c-0.3,0.6-0.8,1.4-1.5,2.3
			c-0.7,0.9-1.3,1.7-1.7,2.3h-0.5c-0.3,0-0.5,0.1-0.5,0.3c0,0.1,0,0.2,0.1,0.3c0.1,0.1,0.1,0.3,0.2,0.5c-1.3,1.2-2.5,2.5-3.7,3.9
			c-1.2,1.4-2.6,2.7-4.1,3.9c-1.5,1.2-3.4,2.2-5.6,3c-2.2,0.8-4.8,1.3-8,1.3c-0.5,0-0.8-0.2-0.9-0.6c-0.4,0.3-0.7,0.5-1.1,0.6
			c-0.4,0-0.8,0.1-1.3,0.1h-0.8h-1.9c-2.3,0-4.6-0.5-7-1.6c-2.3-1-4.5-2.5-6.4-4.5c-2-2-3.6-4.3-5.1-7.1c-1.4-2.8-2.4-6-3-9.5
			c-0.7-2.5-1.1-5-1.3-7.5c-0.1-2.5-0.2-5.3-0.3-8.3v-0.7c0.1-0.3,0.1-0.5,0.2-0.7c0.1-0.2,0.2-0.5,0.5-0.7c-0.3-0.3-0.4-0.6-0.4-1
			c0-0.4,0-0.8,0.1-1.2c0.5-4.3,1.5-8.3,3.1-12.2c1.6-3.9,3.5-7.3,5.7-10.4c2.2-3.1,4.6-5.7,7.2-7.9c2.6-2.2,5.2-3.8,7.8-4.9
			c1.8-0.8,3.6-1.3,5.5-1.5c1.8-0.2,3.7-0.4,5.6-0.4c0.8,0,1.5,0,2.3,0.1c0.8,0,1.5,0.1,2.3,0.2c0.2-0.1,0.6-0.1,1-0.1
			c2.7,0,5,0.5,7.1,1.5c2.1,1,3.9,2.3,5.4,3.9c1.6,1.6,2.9,3.4,4,5.4c1.1,2,2.1,4.1,2.8,6.1c0.8,2,1.4,4,1.8,5.8
			c0.5,1.9,0.8,3.4,1,4.7l-0.1,0.3c0.1,2,0.1,4-0.1,6.1c-0.1,2-0.2,4-0.3,6.1c-0.1,0.5-0.2,0.9-0.3,1.4
			C349,329.1,348.9,329.6,348.7,330.1z M316.4,302.3c-1.2,0.5-2.2,0.9-3.1,1.4c-0.9,0.4-1.7,0.9-2.5,1.4c-0.8,0.5-1.5,1.1-2.2,1.8
			c-0.7,0.7-1.4,1.5-2.1,2.5c-1.7,2.4-3.2,5-4.4,7.6c-1.2,2.7-2,5.4-2.3,8.4c-0.6,5-0.1,9.6,1.3,13.8c1.4,4.2,3.3,7.9,5.7,11.2
			c0.3,0.4,0.6,0.8,0.9,1.3c0.3,0.4,0.8,0.6,1.3,0.6h0.3c0.3,0,0.7,0.2,1,0.5c0.3,0.3,0.8,0.5,1.3,0.5c0.1,0,0.3,0,0.4-0.1
			c0.1,0,0.2-0.1,0.3-0.1c0.3,0,0.5,0,0.7,0.1c0.2,0.1,0.5,0.1,0.8,0.1c0.1,0,0.2,0,0.3-0.1c0.1,0,0.1-0.1,0.2-0.1
			c0.1,0,0.2,0.1,0.2,0.3c1.6,0,3.2-0.4,4.9-1.2c1.7-0.8,3.2-1.8,4.7-2.9c1.5-1.2,2.8-2.4,3.9-3.6c1.1-1.3,2-2.3,2.5-3.1
			c0.8-1.3,1.5-2.6,2.3-4.1c0.8-1.5,1.4-3,2-4.6c0.6-1.5,1.1-3,1.5-4.5c0.4-1.5,0.7-2.8,0.8-3.9c0.2-1.8,0.2-3.9,0-6.2
			c-0.2-2.3-0.7-4.6-1.4-6.9c-0.7-2.2-1.8-4.2-3.1-6c-1.4-1.7-3-2.9-5-3.6c-0.4-0.1-0.6-0.3-0.6-0.4c-0.1-0.1-0.2-0.4-0.5-1
			c-0.3,0.5-0.7,0.7-1.3,0.7c-0.7,0-1.4-0.1-2.1-0.2c-0.7-0.1-1.3-0.2-1.8-0.2c-0.2,0-0.4,0-0.6,0.1c-0.2,0-0.4,0.1-0.6,0.1
			c-0.6,0-0.9,0-1.2-0.1c-0.5,0.3-0.9,0.4-1.3,0.4C317.1,302.5,316.7,302.5,316.4,302.3z"/>
		<path d="M365.6,366.3c-0.7,0.3-1.3,0.5-1.8,0.5h-9c-0.6,0-0.8-0.2-0.8-0.6c-0.3,0.1-0.5,0.3-0.7,0.4c-0.2,0.1-0.4,0.2-0.5,0.2
			c-0.1,0-0.3-0.1-0.5-0.3c-0.2-0.2-0.2-0.3-0.2-0.5v-0.2c0.2-1.5,0.4-3.1,0.5-4.7c0.1-1.6,0.3-3.2,0.5-4.8c0.1-1.2,0.3-2.4,0.5-3.6
			c0.2-1.2,0.3-2.5,0.5-3.7c0.1-1.4,0.3-2.7,0.4-4c0.1-1.3,0.3-2.7,0.4-4.3l0.1-0.7c0.1-0.3,0.1-0.7,0.2-1.1
			c0.1-0.4,0.1-0.8,0.2-1.1c0.1-1.1,0.2-2.2,0.3-3.4c0.1-1.1,0.2-2.3,0.3-3.5c0.1-0.8,0.2-1.5,0.3-2.3c0.1-0.7,0.2-1.5,0.3-2.3
			c0.3-2.2,0.5-4.5,0.7-6.9c0.2-2.4,0.5-4.7,0.7-6.9l0.5-3.6c0.1-1.3,0.2-2.6,0.3-3.7c0.1-1.2,0.2-2.4,0.3-3.8
			c0.1-0.3,0.1-0.6,0.2-0.8c0-0.3,0.1-0.6,0.2-0.8c0.1-0.3,0.1-0.7,0.1-0.9c0-0.3,0-0.6,0.1-0.9l0.1-1.2c0-0.1,0-0.1-0.1-0.2
			c0,0-0.1-0.1-0.1-0.2c0.1-0.2,0.2-0.4,0.3-0.6c0.1-0.2,0.2-0.4,0.3-0.5c0.1-0.6,0.1-1.3,0.1-1.9c0-0.7,0-1.3,0.1-1.9
			c0.1-0.4,0.2-0.8,0.2-1c0.1-0.1,0.1-0.4,0.1-0.7c0-0.3-0.1-0.5-0.1-0.7c0-0.3,0.2-0.5,0.6-0.6c0.4-0.1,0.9-0.2,1.4-0.3
			c0.5-0.1,1.1-0.1,1.7-0.2c0.6,0,1.1-0.1,1.4-0.1c0.6,0,1.3,0,1.9,0.1c0.7,0,1.3,0.1,1.9,0.1c0.8,0,1.5,0,2.2-0.1
			c0.7-0.1,1.4-0.1,2.2-0.1c1.3,0.1,2.7,0.2,4.2,0.3c1.5,0.1,2.9,0.4,4.3,0.7c1.4,0.3,2.7,0.8,4,1.3c1.3,0.6,2.3,1.4,3.2,2.4
			c0.8,1,1.7,2,2.6,3c0.9,1,1.6,2.2,2.3,3.4c0.7,1.2,1.2,2.4,1.6,3.8c0.4,1.3,0.6,2.7,0.5,4.2c-0.1,0.8-0.1,1.7,0.1,2.5
			c0.1,0.8,0.1,1.7-0.1,2.6c0,0.3-0.1,0.7-0.3,1.2l-0.9,2.9c-0.4,1.3-0.8,2.5-1.3,3.7c-0.5,1.2-1.2,2.3-2.1,3.5l-0.6,1
			c-0.3,0.6-0.8,1.2-1.4,1.8c-0.7,0.7-1.4,1.3-2.1,2c-0.7,0.7-1.4,1.3-2,1.8c-0.6,0.5-1,0.9-1.2,1c0.1,0.1,0.1,0.3,0.1,0.6
			c0.8,4.4,1.8,8.5,3,12.3c1.2,3.8,2.1,7.7,2.7,11.8c0.1,0.4,0.2,1,0.5,1.7c0.2,0.7,0.4,1.2,0.4,1.3c-0.1,0.1-0.2,0.2-0.2,0.3
			c0,0.3,0.1,0.8,0.3,1.5c0.2,0.7,0.4,1.3,0.5,1.7l0.3,1c0.1,0.4,0.3,0.9,0.5,1.4c0.2,0.5,0.3,0.9,0.2,1.1c0,0.3-0.4,0.6-1.3,0.7
			c-0.9,0.1-1.9,0.2-3,0.3c-1.2,0-2.4,0.1-3.7,0.1c-1.3,0-2.4,0-3.2,0c-0.6,0-1.1,0-1.6-0.1c-0.5-0.1-0.8-0.4-0.9-1
			c-0.1-0.8-0.3-1.7-0.6-2.5c-0.3-0.8-0.5-1.7-0.6-2.7c-1.1-3.8-2.1-7.8-2.9-11.8c-0.8-4-1.9-7.8-3.2-11.5c-0.5-1.2-0.9-2.4-1.2-3.5
			c-0.3-1.2-0.6-2.4-0.8-3.7c-0.1-0.1-0.1-0.3-0.2-0.4c0-0.1-0.1-0.2-0.3-0.4c-0.2,0.3-0.3,0.5-0.4,0.8c0,0.2-0.1,0.5-0.2,0.8
			c0,0.6,0,1.1-0.1,1.7c-0.1,0.6-0.1,1.1-0.2,1.6l-0.2,1.6c-0.1,1.6-0.3,3.2-0.5,4.7c-0.2,1.5-0.4,3.1-0.6,4.7l-0.4,4.2
			c-0.3,2.9-0.7,5.8-1,8.5C366,360.5,365.7,363.4,365.6,366.3z M372.5,302.1c-0.1,0.4-0.2,0.8-0.3,1.4l-0.9,7.4
			c-0.1,1-0.2,1.9-0.2,2.8c0,0.9,0,1.8-0.2,2.7l-0.3,1.6c-0.1,0.7-0.1,1.4-0.2,2c0,0.6,0.3,0.9,1.1,0.9c1.3,0,2.6-0.2,3.9-0.6
			s2.6-1,3.7-1.8c1.1-0.8,2.1-1.8,2.8-3c0.8-1.2,1.3-2.5,1.5-4.1c0.1-1,0.1-1.9-0.1-2.8c-0.2-0.9-0.2-1.7-0.1-2.5
			c0-0.3,0.1-0.5,0.2-0.7l-0.8,0.4c-0.3-0.4-0.5-0.8-0.8-1.1c-0.2-0.3-0.5-0.6-0.8-1l-0.6-0.6c-1-0.4-2-0.7-3-0.9
			c-1-0.2-2.1-0.3-3-0.3c-0.4,0-0.7,0-0.9,0.1C373.2,302,372.9,302.1,372.5,302.1z"/>
		<path d="M414.7,355.7l-0.8,0.4c-0.1,0-0.1-0.3-0.1-0.9c0-0.6,0.1-1.3,0.2-2.1c0.1-0.8,0.1-1.6,0.2-2.4c0.1-0.8,0.1-1.3,0.2-1.7
			c0-0.2,0-0.4,0.1-0.6c0-0.2,0.1-0.4,0.1-0.6c0.1-0.9,0.2-1.8,0.2-2.6s0.1-1.7,0.2-2.5l0.6-4.5c0.3-2.4,0.5-4.9,0.6-7.3
			c0.1-2.4,0.3-4.8,0.6-7.2l-0.8-0.6v-0.3c0.1-0.1,0.1-0.2,0.1-0.4c0.1-0.6,0-1.3-0.4-1.9c-0.4-0.7-0.6-1.3-0.5-1.8
			c0-0.6-0.1-1.3-0.3-2.1l-2.1-5.8c-1-2.8-1.9-5.6-2.8-8.3c-0.9-2.8-1.9-5.5-2.8-8.2l-2.3-6.3c0.3-0.3,0.6-0.5,0.9-0.5
			c0.8,0,1.7,0,2.5,0.1c0.8,0,1.6,0.1,2.5,0.1c1,0,2.1,0,3.2,0c1.1,0,2.1,0,3.2-0.1c0.6,0,0.9,0.1,1.1,0.2c0.2,0.1,0.4,0.5,0.6,0.9
			l3.2,9.6c0.1,0.5,0.3,1.2,0.6,2c0.3,0.9,0.6,1.7,0.9,2.6c0.3,0.9,0.6,1.6,0.8,2.3c0.2,0.7,0.4,1,0.6,1c0.1,0,0.2-0.1,0.3-0.2
			c0.1-0.1,0.2-0.2,0.3-0.4l8-14.9l1.3-2.4c0.4-0.6,0.9-0.9,1.6-0.9c0.8,0.1,1.7,0.1,2.5,0.1s1.7,0,2.5,0c1,0,2,0,3-0.1
			c1,0,2-0.1,3.1-0.1c0.1,0,0.3,0,0.5,0.1c0.2,0,0.3,0.2,0.2,0.5c0,0.3,0,0.5-0.1,0.5c-1.1,2-2.2,3.9-3.2,5.9c-1,2-2.1,4-3.1,6
			l-9.4,17.8c-0.3,0.6-0.6,1.2-1,1.8c-0.4,0.7-0.6,1.2-0.7,1.7c0,0.3,0,0.5,0.1,0.6l0.1,0.7l-1.4,0.4l-0.2,0.4
			c-0.3,2.2-0.5,4.3-0.6,6.3c-0.1,2-0.3,4.1-0.6,6.2c-0.1,0.5-0.1,0.9-0.1,1.4s0,0.9-0.2,1.4c0,0.3-0.1,0.7-0.2,1
			c-0.1,0.4-0.2,0.7-0.3,1v2c0,0.4,0,0.8-0.1,1.2c0,0.4-0.1,0.8-0.2,1.1l-0.3,2.5c-0.3,2.9-0.6,5.7-0.8,8.6
			c-0.2,2.9-0.5,5.7-0.8,8.5c-0.1,0.4-0.3,0.6-0.6,0.7c-0.3,0.1-0.8,0.2-1.4,0.2c-0.4,0-0.8-0.1-1-0.4H422c-0.3,0.3-0.6,0.4-1,0.4
			c-0.2,0-0.4,0-0.6-0.1c-0.2,0-0.4-0.1-0.6-0.1c-0.6,0.1-1.1,0.1-1.7,0.2c-0.6,0-1.1,0.1-1.7,0.1c-1.3,0-2.1-0.1-2.7-0.2
			c-0.5-0.1-0.9-0.4-1-0.8c-0.1-0.5-0.1-1.1,0-1.9c0.1-0.8,0.3-2,0.5-3.5c0.1-0.3,0.2-0.8,0.3-1.3c0.1-0.5,0.4-0.9,0.8-1
			L414.7,355.7z"/>
	</g>
</g>
</svg>
